<?xml version="1.0" encoding="utf-8"?>
<!-- Generator: Adobe Illustrator 23.0.3, SVG Export Plug-In . SVG Version: 6.00 Build 0)  -->
<svg version="1.1" id="Layer_1" xmlns="http://www.w3.org/2000/svg" xmlns:xlink="http://www.w3.org/1999/xlink" x="0px" y="0px"
	 viewBox="0 0 295.6 242.6" style="enable-background:new 0 0 295.6 242.6;" xml:space="preserve">
<style type="text/css">
	.st0{fill:#FFFFFF;}
</style>
<g>
	<g>
		<path class="st0" d="M137.2,40.8c-0.2-0.2-0.4-0.4-0.6-0.6l-17.9-17.9c-3.3-3.3-8.6-3.3-11.9,0c-3.3,3.3-3.3,8.6,0,11.9l11.9,11.9
			L106.8,58c-3.3,3.3-3.3,8.6,0,11.9c3.3,3.3,8.6,3.3,11.9,0l17.9-17.9C139.7,49,139.9,44.1,137.2,40.8z"/>
		<path class="st0" d="M156.4,60c-0.2-0.2-0.4-0.4-0.6-0.6c-3.3-2.7-8.2-2.5-11.3,0.6l-17.9,17.9c-3.3,3.3-3.3,8.6,0,11.9
			c3.3,3.3,8.6,3.3,11.9,0l11.9-11.9l11.9,11.9c3.3,3.3,8.6,3.3,11.9,0c3.3-3.3,3.3-8.6,0-11.9L156.4,60z"/>
		<path class="st0" d="M144.5,32.2c0.2,0.2,0.4,0.4,0.6,0.6c3.3,2.7,8.2,2.5,11.3-0.6l17.9-17.9c3.3-3.3,3.3-8.6,0-11.9
			c-3.3-3.3-8.6-3.3-11.9,0l-11.9,11.9L138.6,2.5c-3.3-3.3-8.6-3.3-11.9,0c-3.3,3.3-3.3,8.6,0,11.9L144.5,32.2z"/>
		<path class="st0" d="M182.2,46.1l11.9-11.9c3.3-3.3,3.3-8.6,0-11.9c-3.3-3.3-8.6-3.3-11.9,0l-17.9,17.9c-3.1,3.1-3.3,8-0.6,11.3
			c0.2,0.2,0.4,0.4,0.6,0.6l17.9,17.9c3.3,3.3,8.6,3.3,11.9,0c3.3-3.3,3.3-8.6,0-11.9L182.2,46.1z"/>
	</g>
	<g>
		<path class="st0" d="M37.4,242.6v-9.9c0-2.2,1-3.4,3.1-3.4h2c0.1,0,0.3,0,0.5,0.1c1,0.1,1.6,0.5,2,1.1c0.4-0.6,1-1,2-1.1
			c0.2,0,0.4-0.1,0.6-0.1h2c2,0,3.1,1.1,3.1,3.4v9.9h-2.2v-9.7c0-0.8-0.4-1.3-1.3-1.3h-1.9c-0.6,0.1-0.9,0.6-0.9,1.4v9.6h-2.2v-9.7
			c0-0.1,0-0.1,0-0.1c-0.2-0.8-0.6-1.1-1.4-1.1h-1.8c-0.1,0-0.2,0-0.3,0c-0.4,0-0.6,0.1-0.8,0.3c-0.1,0.2-0.2,0.4-0.3,0.8v9.9H37.4z
			"/>
		<path class="st0" d="M64.3,239.1v-5.9c0-2.6,1.4-3.8,4.1-3.8h3.3c1.1,0,1.9,0.3,2.6,0.9c0.6,0.6,0.9,1.4,0.9,2.5v1.6l-8.7,4v0.6
			c0.1,0.6,0.2,0.9,0.4,1.1c0.2,0.2,0.6,0.4,1.1,0.4h7.3v2.2h-7.4c-1,0-1.9-0.3-2.6-1C64.7,241,64.3,240.2,64.3,239.1z M66.5,235.9
			l6.5-3v-0.2c0-0.8-0.4-1.2-1.3-1.2H68c-1,0-1.5,0.6-1.5,1.7V235.9z"/>
		<path class="st0" d="M86.6,239.2v-6.5c0-1.1,0.3-1.9,1-2.5c0.7-0.6,1.5-0.9,2.6-0.9h5.2v-4.4h2.2v13.9c0,0.9-0.3,1.8-0.9,2.6
			c-0.6,0.8-1.4,1.2-2.4,1.2h-4.3c-0.4,0-0.8-0.1-1.3-0.3C87.3,241.7,86.6,240.7,86.6,239.2z M88.8,239.2c0.1,0.8,0.5,1.3,1.2,1.3
			h3.9c0.3,0,0.6-0.1,0.9-0.3c0.4-0.3,0.6-0.7,0.6-1.3V233c0-0.9-0.4-1.4-1.2-1.4h-3.9c-1,0-1.5,0.5-1.5,1.5v6
			C88.8,239.1,88.8,239.1,88.8,239.2z"/>
		<path class="st0" d="M108.8,226.5c0-0.4,0.1-0.8,0.4-1.1c0.3-0.3,0.6-0.4,1.1-0.4c0.4,0,0.8,0.2,1.1,0.5c0.3,0.3,0.4,0.7,0.4,1.1
			s-0.1,0.8-0.4,1.1c-0.3,0.3-0.6,0.4-1.1,0.4c-0.4,0-0.8-0.1-1.1-0.4C109,227.3,108.8,226.9,108.8,226.5z M109.2,242.6h2.2v-13.3
			h-2.2V242.6z"/>
		<path class="st0" d="M123.1,239.1v-1.6c0-1.2,0.3-2.2,0.8-2.9c0.6-0.8,1.5-1.2,2.6-1.2h5.5v-0.9c0-0.2-0.1-0.4-0.2-0.6
			c-0.2-0.2-0.4-0.3-0.6-0.3h-8v-2.2h7.9c1.7,0,2.8,0.8,3.2,2.4c0,0.3,0.1,0.5,0.1,0.6v6.8c0,0.6-0.2,1.2-0.5,1.7
			c-0.7,1.1-1.6,1.7-2.8,1.7h-4.4c-0.7,0-1.3-0.2-1.9-0.7c-0.6-0.5-1-1-1.3-1.6C123.2,239.9,123.1,239.5,123.1,239.1z M125.9,240.2
			c0.3,0.1,0.7,0.2,1.2,0.2h3c1.2,0,1.8-0.4,1.8-1.3V237c0-0.8-0.5-1.3-1.5-1.4h-3.5c-1.1,0.1-1.6,0.6-1.6,1.4v2.2
			C125.3,239.6,125.5,240,125.9,240.2z"/>
		<path class="st0" d="M161.5,242.6v-17.7h2.2v4.4h5.5c1.3,0,2.2,0.5,2.8,1.4c0.3,0.5,0.5,1.1,0.5,1.7v10.1h-2.2v-9.5
			c0-0.1,0-0.2,0-0.3c-0.1-0.7-0.4-1.1-1-1.2h-4c-1,0-1.5,0.5-1.5,1.5v9.6H161.5z"/>
		<path class="st0" d="M184.2,239.4v-6.9c0-1.8,1-2.8,2.9-3.1c0.1,0,0.2,0,0.3,0h4.3c0.1,0,0.3,0,0.5,0.1c2,0.3,3,1.3,3,3v6.9
			c0,1.2-0.6,2.2-1.8,2.9c-0.5,0.3-1,0.4-1.7,0.4h-4.1c-1.7,0-2.8-0.8-3.3-2.4C184.2,239.7,184.1,239.4,184.2,239.4z M188,240.4h3.6
			c1,0,1.6-0.6,1.6-1.7v-5.6c0-1.1-0.5-1.6-1.6-1.6H188c-1.1,0-1.6,0.5-1.6,1.6v5.5C186.4,239.8,186.9,240.4,188,240.4z"/>
		<path class="st0" d="M207,239.2v-9.8h2.2v10.2c0.1,0.6,0.6,0.8,1.5,0.8h3.5c0.5,0,0.9-0.1,1.2-0.3c0.2-0.2,0.3-0.6,0.3-1.1v-9.6
			h2.2v9.8c0,2.3-1.2,3.4-3.7,3.4h-3.5C208.2,242.6,207,241.5,207,239.2z"/>
		<path class="st0" d="M229.2,242.6v-2.2h6.8c0.2,0,0.4-0.1,0.5-0.3c0.3-0.2,0.4-0.6,0.4-1.1v-1c0-0.8-0.4-1.2-1.3-1.2h-3
			c-1.4,0-2.4-0.5-3-1.4c-0.2-0.4-0.4-0.8-0.4-1.3v-1.7c0-0.9,0.3-1.7,0.8-2.2c0.5-0.5,1.2-0.8,2.2-0.8h6.9v2.2h-6.7
			c-0.6,0-0.9,0.3-0.9,1v1c0,0.3,0.1,0.6,0.4,0.8c0.2,0.2,0.5,0.3,0.9,0.3h3.3c0.3,0,0.5,0,0.6,0c0.8,0.2,1.4,0.5,1.8,1.1
			c0.5,0.5,0.7,1.2,0.7,1.9v2.1c0,0.9-0.4,1.7-1.2,2.3c-0.6,0.4-1.2,0.6-1.6,0.6H229.2z"/>
		<path class="st0" d="M250.3,239.1v-5.9c0-2.6,1.4-3.8,4.1-3.8h3.3c1.1,0,1.9,0.3,2.6,0.9c0.6,0.6,0.9,1.4,0.9,2.5v1.6l-8.7,4v0.6
			c0.1,0.6,0.2,0.9,0.4,1.1c0.2,0.2,0.6,0.4,1.1,0.4h7.3v2.2h-7.4c-1,0-1.9-0.3-2.6-1C250.7,241,250.3,240.2,250.3,239.1z
			 M252.5,235.9l6.5-3v-0.2c0-0.8-0.4-1.2-1.3-1.2H254c-1,0-1.5,0.6-1.5,1.7V235.9z"/>
	</g>
	<g>
		<path class="st0" d="M19.9,130.1c-10.2,0-18.8,7.4-18.8,16.1v41.7c0,8.7,8.6,16.1,18.8,16.1c9.4,0,17-7.2,17-16.1v-6H26.7v6
			c0,3.2-3.1,5.9-6.7,5.9c-4.5,0-8.5-2.8-8.5-5.9v-41.7c0-3.2,4-5.9,8.5-5.9c3.6,0,6.7,2.8,6.7,5.9v5.6H37v-5.6
			C37,137.3,29.3,130.1,19.9,130.1z"/>
		<polygon class="st0" points="53.6,130.1 38.8,203.4 50.7,203.4 58.3,160 66.2,203.4 78.2,203.4 62.8,130.1 		"/>
		<polygon class="st0" points="105.7,181.4 92.9,130.1 82.2,130.1 82.2,203.4 92.4,203.4 92.4,170.1 101.3,203.4 110.2,203.4 
			118,171.2 118,203.4 128.3,203.4 128.3,130.1 118.6,130.1 		"/>
		<path class="st0" d="M151.6,130.1h-16.1v73.3h10.3v-23.5h5.8c8.9,0,16.1-7.2,16.1-16.1v-17.7C167.8,137.3,160.5,130.1,151.6,130.1
			z M157.4,163.9c0,3.2-2.7,5.8-5.8,5.8h-5.8v-29.5h5.8c3.2,0,5.8,2.7,5.8,5.9V163.9z"/>
		<path class="st0" d="M190,130.1c-9.4,0-17,7.2-17,16.1v10.5c0,8.5,7.6,15.4,16.8,15.4c3.3,0,6.8,2,6.8,5.3v10.2
			c0,3.3-3,5.9-6.6,5.9c-3.7,0-6.8-2.7-6.8-5.9v-7.8H173v7.8c0,8.9,7.6,16.1,17,16.1c9.3,0,16.9-7.2,16.9-16.1v-10.2
			c0-9.1-8.6-14.7-16.7-15.4c-3.3-0.2-6.9-2-6.9-5.3v-10.5c0-3.3,3-5.9,6.7-5.9c3.6,0,6.7,2.7,6.7,5.9v8.1h10.2v-8.1
			C206.9,137.3,199.3,130.1,190,130.1z"/>
		<rect x="213.7" y="130.1" class="st0" width="10.2" height="73.3"/>
		<polygon class="st0" points="228.6,140.3 240,140.3 240,203.4 250.2,203.4 250.2,140.3 261.4,140.3 261.4,130.1 228.6,130.1 		"/>
		<polygon class="st0" points="295.6,140.3 295.6,130.1 266.3,130.1 266.3,203.4 295.6,203.4 295.6,193.2 276.5,193.2 276.5,165.9 
			293.2,165.9 293.2,155.6 276.5,155.6 276.5,140.3 		"/>
	</g>
</g>
</svg>
