<?xml version="1.0" encoding="utf-8"?>
<!-- Generator: Adobe Illustrator 23.0.2, SVG Export Plug-In . SVG Version: 6.00 Build 0)  -->
<svg version="1.1" id="Layer_1" xmlns="http://www.w3.org/2000/svg" xmlns:xlink="http://www.w3.org/1999/xlink" x="0px" y="0px"
	 viewBox="0 0 497 201.2" style="enable-background:new 0 0 497 201.2;" xml:space="preserve">
<style type="text/css">
	.st0{fill:#FFFFFF;}
</style>
<path class="st0" d="M184.2,66.2L184.2,66.2L184.2,66.2z"/>
<path class="st0" d="M223.6,1c0.1,0,0.3-0.3,0.7-0.5c0.3-0.3,0.7-0.5,1-0.5c0.1,0,0.4,0,0.5,0.3c2,2,2.7,3.5,3.1,6
	c0.1,1.2,2.3,6,1.8,7.2l1.6,3.1l-1.4-0.4c0,0,0.1,0.8,1.4,3.1c-0.9-0.3-1.8-0.4-1.8-0.4l2.9,3.3c0.1,0.3,0,0.4-0.4,0.4
	c-0.5,0-1.4-0.3-2-0.7l0,0c0.9,0.5,0.9,1.6,2.3,2.6l-0.8,0.7c1.8,2.6,3.5,5.5,4.2,8.3c2.3-2.9,4.4-6.1,6-10.3
	C249.2,12.2,254.8,9,267.3,9c8.7,0,20.7,1.6,38.8,3.3c1.6,0.1,3.1,0.3,4.7,0.3c7.3,0,14.3-1.4,21.6-3.3c13.8-3.4,15.9-7.7,16.9-7.7
	h0.1c0,0,1.8,3-2.6,6.5c-0.5,2-3.3,5.6-19.2,7.7c0,0,0.8,0.7,3.4,0.7c0.8,0,1.8,0,3.1-0.3c5.1-0.7,9.1-1.8,9.1-1.8s0.9-0.3,1.8-0.3
	c0.4,0,0.9,0.1,1.2,0.3c0,0,0.3,1.6-5.1,4.6c-1,2.6-6.5,2.5-6.1,3c0,0,3.6,1,3.6,2.1c0,1-4.9,4.6-11.6,4.6c-0.1,0-0.3,0-0.4,0
	l-4.2-0.3c0,0,8.2,2,9,3.8c0,0-0.9,1.4-4.7,1.6c-0.3,0-0.5,0-0.8,0c-4.8,0-9.4-1.6-19.4-2.5l13.7,6.2c-0.1,0.9-3,1-4.7,1
	c-0.8,0-1.3,0-1.3,0l-1.2,0.1c0,0,2.7,1.7,2.3,2.3c-0.4,0.7-6.8,2.1-9.4,2.1c-0.1,0-0.1,0-0.3,0c0,0,2.9,3.8,2,3.8
	c-0.1,0-0.3,0-0.4-0.1c-1.3-0.7-7.9-3-8.6-3c-0.1,0,0,0,0.1,0.1c3.3,1.8,3.8,2.7,5.5,4.4c0.8,0.8,2.2,4.3,1.2,4.3l0,0
	c-2.7-0.1-5.5-2.1-5.5-2.1s2.3,4.3,1.2,4.4l0,0c-1.3,0-4.8-3.8-5.9-4.7c-2.5-2.6-3.6-3.5-4-3.5c-0.9,0,3.4,6.4,4.2,7.8
	c0.9,2.1,0.9,3.3,1.2,4.2c0,0,0.1,0.7-0.9,0.7c-1,0-5.2-2-5.2-2s2.2,3,1.3,3.5c-0.1,0.1-0.5,0.1-1,0.1c-1.8,0-5.6-0.8-6.1-1.2
	c1.6,2.6,1.6,4.8,1.6,4.8s-3.6-2-4.3-2c-0.1,0-0.1,0,0,0.3c0.8,1,1.4,2.9,0.5,3.6c-4.2-0.7-8.8-5.9-9.2-5.9c0,0,0,0.1,0,0.3
	c2.2,4.3,7.8,8.6,7.5,8.8c-0.5,0.4-1.2,0.7-2,0.7c-1.4,0-3.1-0.5-4-0.9l0.5,1.8c-0.5,0.1-1,0.3-1.4,0.3c-1.4,0-2.6-0.5-4.4-1
	c0.7,1,3.9,2.6,4.4,3.6c-0.7,0.4-1.3,0.5-2,0.5s-1.3-0.1-2.3-0.4c0,0-1.8-0.1-3-0.7l0,0c-0.1,0,2.6,1.8,3.3,3.5
	c-0.7,0.3-1.7,0.5-2.9,0.5c-1,0-2.5-0.3-3.9-1l0,0c-0.3,0-1.2,0.7-0.4,2c1.6,2.5,6.5,4.6,6.1,4.8s-0.8,0.3-1.2,0.3s-0.7-0.1-0.7-0.1
	s4,4,5.6,5.5l-0.9,0.4c0.9,1,3.9,6.9,6.1,8.3c-0.3,0-0.4,0-0.7,0c-0.4,0-0.5,0-0.9-0.3c1.6,2,3.3,6.2,3.6,8.8
	c1.7,4,0.4,11.1-0.9,15.1c-0.7,2.2-1.6,4.3-2.9,6.2l-0.1,0.3c3.9-2.6,12.9-10.1,10.4-22c-0.5-2.7-0.1-1-1.3-5.7
	c-2.1-9.9,0.4-17.7,4-19.9c0.1-0.1,0-0.4,2.2-1.8c1.7-1,4.9-3.1,6.4-3.5c0.5-0.1,1-0.1,1.7-0.1c1.4,0,3.1,0.3,4.7,0.5l3.1,1.2
	c0.9,0.3,1.3,0.7,2.2,2.1l0.1,0.3l0.9,0.5l1.8,1l1.2,0.4l0.8,0.3l-1.6,1.4c1.3,0.8,2.7,0.8,4,2.5c-0.8,0.5-1.4,0.7-2,0.7
	c-0.1,0-0.3,0-0.4,0l-0.5,0.4l-1.4-0.3v0.1l-0.4,0.9l-0.9,0.1c-0.7-0.3-1.6-1.3-2.3-1.3l0,0l0.4,1.7c-0.1,0-0.1,0-0.3,0
	c-0.8,0-1.6-0.7-2.2-1.2l-0.5,1c-0.3,0.1-0.5,0.1-0.9,0.1c-0.5,0-1-0.1-1.4-0.1c-1.8,0-3.1-0.4-4.8-1.6c-0.8-0.5-1.4-1.6-2.5-2
	c-1-0.5-1.8,0.1-2.7-0.9c-1.8,1-2.6,2.5-3.1,3.1c-0.9,2.2-1.8,5.1,1.4,15c1.6,4.7,1.8,7.2,1.7,9.2c-0.1,4.3-1,8.3-3.6,14.3
	c-1.2,3.6-5.3,7.7-8.6,9.8c-0.5,0.9-3,2-3.8,2.5c-2.5,1.7-5.5,1.8-9.1,2.3c-2.3,0.4-4.6,0.5-6.5,0.5c-4.3,0-7.5-0.5-8.3-0.7
	c0,0-4.8,1.8-7.5,1.8c-0.4,0-0.7,0-1-0.1c-0.7-0.1-2.7-0.3-5.1-0.3c-1.6,0-3.3,0-4.7,0c-3.9,0.1-6.6,0.8-9.9,0.8
	c-1.2,0-2.5-0.1-4-0.4l-0.7,0.5l-0.5-1.2c-0.4-0.4-0.7-0.9-1.7-1.2l-0.3-0.1l-0.8,1l-0.5-2.1l-1.3-1l-1.4,1.3l0.1-2.7
	c0.1-1.2,0.7-1.7,1.2-2c1.4-2.9,2.5-3.9,6.8-3.9c1.3,0,2.7,0.1,4.7,0.3c0.7-0.1,2.2-0.3,3.9-0.3c2.7,0,6.2,0.3,7.9,0.7
	c-0.5-0.8-8.1-2.6-11.4-6.8c-9.5-11.7-3.6-18.6-3.8-18.6l0,0h-2h-1.6c0,0,0,0-0.1,0c-0.7,0-2.3-0.4-3.4-0.9c-0.3,0-0.9,0.1-1.6,0.1
	c-0.5,0-1.2-0.1-1.7-0.4c-0.5-0.3-1.4-0.9-2.3-1.7c-0.7,2.9-0.4,3.3-0.3,3.3h0.1c0.5,1,0,2,0.1,2.9c0.8,2.7,0.7,3.4,0.3,3.4
	c-0.4,0-1.2-1-1.2-1s1.6,3.3,1.2,5.1c-0.8-0.1-1.7-0.8-1.7-0.8s1.3,3.5,1.3,6.9c0,1.2,0,1.6-0.1,1.6c-0.3,0-0.7-1.3-1.3-1.7
	l-0.8,0.1v0.3c0,0.5,0.1,1.7,0.8,3.8c0.1,0.5,0.1,0.7,0,0.7c-0.3,0-1.3-1.3-1.8-1.4l0,0c-0.4,0-0.7,2.3-1.6,3.6l1.4,0.4l-0.5,0.9
	c0,0,2.1,1.6,1.8,6.4c0.4,0.5-0.1,2.5-0.7,3.3c-0.4,0.7-2.2,2.3-2.9,2.3h-0.1c-0.3-0.1,0.3-1.4,0.4-2.3c0.1-0.8-0.1-1.3,0.3-2
	c0.3-1.8-1.7-2.5-3.5-3.4c-0.3-0.1-0.5-0.3-0.8-0.3c-1.7,0-3.3,2.2-4.3,3.1c-2.6,2.1-2.1,2.5-4.2,4.3c-2.2,1.7-4.6,1-5.5,1.6
	c-0.8,0.4-1.2,2.2-1.6,2.2l-0.4-1.3c0-0.7,0.5-3.3,1.4-3.9c1.2-3.3,3.1-3.3,4.2-3.5l1.8-1.6h-0.1c-1,0-4,0.4-5.1,0.8
	c-0.4,0.1-0.7,0.1-1,0.1c-1.2,0-2.3-0.5-2.6-0.8s-0.1-0.4-0.5-0.4c-0.1,0-0.4,0-0.7,0.1c-1.7,0.4-2.3,2.5-2.6,2.5l0,0
	c-0.3,0-0.3-0.3-0.4-1.2c0-0.8,1.2-3.3,2.1-3.9c0.9-0.7,1.7-0.8,1.7-0.8s1-0.7,1.8-0.8c0.4-0.1,0.7-0.1,1.2-0.1s1.2,0.1,2.3,0.3
	c0.3,0.1,0.5,0.1,0.8,0.1c1.6,0,2.9-1.8,5.2-2.6v-1.6l-1.7,0.3c0,0-0.1,0-0.3,0h0.3c0.5-0.3,0.5-1.2,0.7-1.8c-0.1-2,0.1-3.4,0.1-3.4
	s-0.3,0.7-1.2,0.7c-0.3-0.4-0.3-2.2,0.1-3.6c0.1-0.5-0.4-1-0.9-1c-0.1,0-0.4,0-0.5,0.1c0.4-1.2,0.7-1.7,0.8-3.3
	c0-0.4,0.1-0.7-0.8-0.7c-0.3,0-0.7,0-1.2,0c0.9-1.8,0.5-3.8,0.5-5.5l-1.3,0.5l-0.1,0.1c-0.4,0,0-1.7,0.3-2.6l0.3-1.3
	c0,0-1-2.5-0.5-3.6l-1.3-0.5l0.7-2.5c0.8-3.3,0.3-5.1,0.5-7.4l-1.2,0.4c-0.1-0.8,1.3-5.1,1-5.1l0,0c-0.8,0.9-1.8,1-2,1l0,0
	c-0.8-1.3,1.2-5.5-0.7-5.5c-0.1,0,0.9-3.1,0.5-4.3l-1.3,0.9c-0.3-0.8-0.1-1.7,0.1-3l-0.9,0.1c-0.3-0.5-0.1-1,0.4-2.1
	c-0.7,0.3-1,0.4-1.4,0.4c0,0,0,0-0.1,0c-0.1-0.4-0.3-0.7,0-1.7c0.5-2.2,1.7-4,1.7-4s-1.6,0.9-2.6,0.9c-0.3,0-0.5,0-0.5-0.3
	c1.7-1.2,2.6-3.1,3.8-5.5c0,0-2.9-1.8-2.3-2.9c0.7-1.3,0.8-2.3,3.3-5.2c-0.1-0.1-1-1.2-2-1.2c-0.1,0-0.1,0-0.3,0
	c0.9-2.6,3.1-3.6,4.9-4.9c0.7-0.4,0-0.7-1-0.7c-0.8,0-1.7,0.1-2.5,0.3l0,0c-0.4,0,0.4-1.8,3.4-3.8c2-1.3,2.9-1.3,3.1-1.3l0,0
	c0,0-0.3-1-1.6-1c-2-0.1,3.6-2.3,3.6-2.3c2.2-1.6,6.2-6.5,6.9-8.2c0.3-0.8,0.5-1,0.8-1h0.1c0.1-2.2-0.7-2.9-1.3-3.3
	c-1.4-0.5-3.5-1.4-7.7-6c-1.8-2.1-3.8-2.3-4.8-2.3c-0.5,0-0.9,0.1-0.9,0.1c-0.5,0.1-1.4,0.1-2.5,0.1c-0.8,0-1.7,0-2.6-0.3
	c-0.4-0.1-0.8-0.1-1.2-0.1c-1.6,0-2.2,0.7-2.2,0.7c-0.7,0.7-0.8,1.2-0.5,2l-0.4,0.3l-0.7-0.9c-1.4-4,0.7-7,0.7-7
	c3.5-4.7,9.6-4.8,9.6-4.8c0.9-2.3,4.3-3.6,4.3-3.6c2.7-1,6.1-1.6,9.5-1.6c4.4,0,8.7,0.7,12,1.6c0.7-0.1,0.3,0,2.2-1.6
	c0,0.7,0.3,0.8,0.4,0.8l0,0c0,0,1-0.5,1.4-1.4c0.3,0.4,0.3,0.5,0.4,0.5c0.1,0,0.1,0,0.4-0.1l0.4-0.4l1-1.6c0.3,0,0.4,0,0.5,0
	C221.6,2.5,222.3,2.3,223.6,1"/>
<path class="st0" d="M193.7,126.7c0.1,0,0.1,0,0.3,0H193.7z M184.2,66.2L184.2,66.2L184.2,66.2z M224.2,0.5C224,0.8,223.7,1,223.6,1
	c-1.4,1.3-2,1.4-2.5,1.4c-0.1,0-0.4,0-0.5,0l-1,1.6l-0.4,0.4c-0.3,0-0.3,0.1-0.4,0.1s-0.1-0.1-0.4-0.5C218,4.9,217,5.5,217,5.5l0,0
	c-0.1,0-0.4-0.1-0.4-0.8c-1.8,1.7-1.4,1.6-2.2,1.6c-3.1-0.8-7.5-1.6-12-1.6c-3.4,0-6.8,0.4-9.5,1.6c0,0-3.4,1.2-4.3,3.6
	c0,0-6.1,0-9.6,4.8c0,0-2.1,3-0.7,7l0.7,0.9l0.4-0.3c-0.3-0.8-0.1-1.3,0.5-2c0,0,0.8-0.7,2.2-0.7c0.4,0,0.8,0,1.2,0.1
	c0.9,0.1,1.8,0.3,2.6,0.3c1,0,2-0.1,2.5-0.1c0,0,0.4-0.1,0.9-0.1c1,0,3,0.4,4.8,2.3c4.2,4.6,6.2,5.5,7.7,6c0.7,0.3,1.4,1,1.3,3.3
	h-0.1c-0.3,0-0.5,0.3-0.8,1c-0.7,1.7-4.7,6.6-6.9,8.2c0,0-5.6,2.2-3.6,2.3c1.3,0,1.6,1,1.6,1l0,0c-0.3,0-1.2,0.1-3.1,1.3
	c-3,2-3.8,3.8-3.4,3.8l0,0c0.8-0.3,1.7-0.3,2.5-0.3c1,0,1.7,0.3,1,0.7c-1.8,1.3-4.2,2.3-4.9,4.9c0.1,0,0.1,0,0.3,0
	c0.9,0,1.8,1,2,1.2c-2.6,2.9-2.6,3.9-3.3,5.2c-0.7,1.2,2.3,2.9,2.3,2.9c-1.2,2.3-2.2,4.3-3.8,5.5c0.1,0.1,0.3,0.3,0.5,0.3
	c1,0,2.9-0.8,2.9-0.8s-1.2,1.8-1.7,4c-0.3,1-0.3,1.3,0,1.7c0,0,0,0,0.1,0c0.3,0,0.7,0,1.4-0.4c-0.5,1-0.7,1.6-0.4,2.1l0.9-0.1
	c-0.3,1.2-0.4,2.1-0.1,3l1.3-0.9c0.4,1-0.5,4.3-0.5,4.3c1.8,0-0.1,4.2,0.7,5.5l0,0c0.1,0,1.2-0.1,2-1l0,0c0.3,0-1,4.3-1,5.1l1.2-0.4
	c-0.3,2.3,0.3,4.2-0.5,7.4l-0.7,2.5l1.3,0.5c-0.7,1.2,0.5,3.6,0.5,3.6l-0.3,1.3c-0.4,0.9-0.7,2.6-0.3,2.6c0,0,0.1,0,0.1-0.1l1.3-0.5
	c0,1.7,0.4,3.6-0.5,5.5c0.5,0,0.9,0,1.2,0c0.9,0,0.8,0.3,0.8,0.7c-0.3,1.4-0.5,2.1-0.8,3.3c0.1-0.1,0.3-0.1,0.5-0.1
	c0.5,0,1,0.4,0.9,1c-0.4,1.4-0.4,3.3-0.1,3.6c0.9,0,1.2-0.7,1.2-0.7s-0.3,1.6-0.1,3.4c-0.3,0.7-0.1,1.7-0.7,1.8l1.7-0.3v1.6
	c-2.3,0.8-3.5,2.6-5.2,2.6c-0.3,0-0.5,0-0.8-0.1c-1.2-0.3-2-0.3-2.3-0.3c-0.4,0-0.8,0-1.2,0.1c-0.9,0.3-1.8,0.8-1.8,0.8
	s-0.8,0.1-1.7,0.8c-0.9,0.7-2.1,3.1-2.1,3.9c0,0.8,0.1,1.2,0.4,1.2l0,0c0.3,0,0.9-2.2,2.6-2.5c0.3,0,0.5-0.1,0.7-0.1
	c0.4,0,0.3,0.1,0.5,0.4c0.3,0.3,1.4,0.8,2.6,0.8c0.4,0,0.7,0,1-0.1c1-0.4,4-0.8,5.1-0.8h0.1l-1.8,1.6c-1,0.3-3,0.3-4.2,3.5
	c-0.8,0.7-1.3,3.3-1.4,3.9l0.4,1.3c0.3,0,0.7-1.8,1.6-2.2c0.8-0.4,3.3,0.3,5.5-1.6c2.1-1.7,1.6-2.2,4.2-4.3c1-0.8,2.6-3.1,4.3-3.1
	c0.3,0,0.5,0,0.8,0.3c2,0.9,3.8,1.7,3.5,3.4c-0.4,0.7-0.3,1.2-0.3,2c-0.1,0.9-0.7,2.2-0.4,2.3h0.1c0.7,0,2.5-1.7,2.9-2.3
	c0.5-0.8,1-2.6,0.7-3.3c0.4-4.8-1.8-6.4-1.8-6.4l0.5-0.9l-1.4-0.4c0.8-1.2,1.2-3.6,1.6-3.6l0,0c0.4,0.1,1.4,1.4,1.8,1.4
	c0.1,0,0.1-0.1,0-0.7c-0.7-2.1-0.8-3.1-0.8-3.8V122l0.8-0.1c0.7,0.4,1.2,1.7,1.3,1.7c0.1,0,0.1-0.4,0.1-1.6
	c-0.1-3.3-1.3-6.9-1.3-6.9s0.8,0.7,1.7,0.8c0.4-1.8-1.2-5.1-1.2-5.1s0.8,1,1.2,1c0.4,0,0.4-0.8-0.3-3.4c-0.3-0.8,0.4-1.8-0.1-2.9
	c0,0,0,0-0.1,0c-0.1,0-0.4-0.4,0.3-3.3c0.9,0.8,1.8,1.4,2.3,1.7c0.5,0.3,1.2,0.4,1.7,0.4c0.7,0,1.2-0.1,1.6-0.1
	c1,0.4,2.7,0.9,3.4,0.9h0.1h1.6h2l0,0c0.1,0-5.7,6.9,3.8,18.6c3.4,4.2,10.9,6,11.4,6.8c-1.7-0.4-5.2-0.7-7.9-0.7
	c-1.7,0-3.3,0.1-3.9,0.3c-1.8-0.1-3.4-0.3-4.7-0.3c-4.3,0-5.3,1-6.8,3.9c-0.5,0.3-1.2,0.8-1.2,2l-0.1,2.7l1.4-1.3l1.3,1l0.5,2.1
	l0.8-1l0.3,0.1c1,0.3,1.3,0.7,1.7,1.2l0.5,1.2l0.7-0.5c1.4,0.3,2.7,0.4,4,0.4c3.3,0,6-0.7,9.9-0.8c1.6,0,3.3,0,4.7,0
	c2.3,0,4.4,0,5.1,0.3c0.3,0.1,0.7,0.1,1,0.1c2.7,0,7.5-1.8,7.5-1.8c0.8,0,4,0.7,8.3,0.7c2,0,4.2-0.1,6.5-0.5
	c3.8-0.5,6.6-0.8,9.1-2.3c0.8-0.5,3.3-1.7,3.8-2.5c3.4-2.1,7.4-6.1,8.6-9.8c2.5-6,3.5-9.9,3.6-14.3c0-2.1-0.1-4.4-1.7-9.2
	c-3.3-9.9-2.5-12.7-1.4-15c0.5-0.7,1.3-2.1,3.1-3.1c0.9,1,1.7,0.4,2.7,0.9c0.9,0.4,1.7,1.4,2.5,2c1.7,1.3,3,1.6,4.8,1.6
	c0.5,0,0.9,0.1,1.4,0.1c0.3,0,0.5,0,0.9-0.1l0.5-1c0.7,0.5,1.4,1.2,2.2,1.2c0.1,0,0.1,0,0.3,0l-0.4-1.7l0,0c0.8,0,1.7,1,2.3,1.3
	l0.9-0.1l0.4-0.9v-0.1l1.4,0.3l0.5-0.4c0.1,0,0.3,0,0.4,0c0.5,0,1.2-0.1,2-0.7c-1.3-1.7-2.6-1.7-4-2.5l1.6-1.4l-0.8-0.3l-1.2-0.4
	l-1.8-1l-0.9-0.5l-0.1-0.3c-0.9-1.4-1.3-1.8-2.2-2.1l-3.1-1.2c-1.4-0.4-3.3-0.5-4.7-0.5c-0.7,0-1.3,0-1.7,0.1
	c-1.6,0.3-4.7,2.3-6.4,3.5c-2.2,1.4-2.1,1.7-2.2,1.8c-3.6,2.2-6.1,10-4,19.9c1,4.7,0.7,3,1.3,5.7c2.5,11.7-6.5,19.2-10.4,22l0.1-0.3
	c1.3-2,2.2-4,2.9-6.2c1.3-4.2,2.6-11.1,0.9-15.1c-0.4-2.7-2.1-6.9-3.6-8.8c0.4,0.3,0.7,0.3,0.9,0.3c0.1,0,0.4,0,0.7,0
	c-2.2-1.4-5.2-7.3-6.1-8.3l0.9-0.4c-1.6-1.4-5.6-5.5-5.6-5.5s0.3,0.1,0.7,0.1c0.4,0,0.9,0,1.2-0.3c0.4-0.3-4.6-2.3-6.1-4.8
	c-0.8-1.3,0.1-2,0.4-2l0,0c1.4,0.8,2.9,1,3.9,1c1.2,0,2.1-0.3,2.9-0.5c-0.7-1.7-3.4-3.5-3.3-3.5l0,0c1.3,0.5,3,0.7,3,0.7
	c1,0.3,1.8,0.4,2.3,0.4c0.7,0,1.2-0.1,2-0.5c-0.5-1-3.8-2.6-4.4-3.6c1.8,0.5,3,1,4.4,1c0.5,0,0.9,0,1.4-0.3l-0.5-1.8
	c1,0.4,2.7,0.9,4,0.9c0.8,0,1.4-0.1,2-0.7c0.3-0.3-5.5-4.6-7.5-8.8c-0.1-0.3-0.1-0.3,0-0.3c0.4,0,5.1,5.2,9.2,5.9
	c1-0.8,0.3-2.6-0.5-3.6c-0.1-0.1-0.1-0.3,0-0.3c0.7,0,4.3,2,4.3,2s0-2.1-1.6-4.8c0.5,0.4,4.2,1.2,6.1,1.2c0.5,0,0.8,0,1-0.1
	c0.9-0.5-1.3-3.5-1.3-3.5s4.2,2,5.2,2c1,0,0.9-0.7,0.9-0.7c-0.3-0.9-0.3-2.1-1.2-4.2c-0.7-1.4-5.1-7.8-4.2-7.8c0.4,0,1.6,0.9,4,3.5
	c1,0.9,4.6,4.7,5.9,4.7l0,0c1.2-0.1-1.2-4.4-1.2-4.4s2.9,2,5.5,2.1l0,0c1,0-0.4-3.5-1.2-4.3c-1.7-1.8-2.2-2.6-5.5-4.4
	c-0.3-0.1-0.3-0.1-0.1-0.1c0.7,0,7.4,2.3,8.6,3c0.1,0.1,0.3,0.1,0.4,0.1c0.9,0-2-3.8-2-3.8c0.1,0,0.1,0,0.3,0c2.7,0,9-1.3,9.4-2.1
	c0.4-0.8-2.3-2.3-2.3-2.3l1.2-0.1c0,0,0.5,0,1.3,0c1.7,0,4.6-0.1,4.7-1l-13.7-6.2c10,0.9,14.6,2.5,19.4,2.5c0.3,0,0.5,0,0.8,0
	c3.8-0.1,4.7-1.6,4.7-1.6c-0.8-1.8-9-3.8-9-3.8l4.2,0.3c0.1,0,0.3,0,0.4,0c6.8,0,11.6-3.5,11.6-4.6s-3.6-2.1-3.6-2.1
	c-0.4-0.5,5.1-0.4,6.1-3c5.3-2.9,5.1-4.6,5.1-4.6c-0.3-0.3-0.7-0.3-1.2-0.3c-0.9,0-1.8,0.3-1.8,0.3s-4,1-9.1,1.8
	c-1.2,0.1-2.2,0.3-3.1,0.3c-2.6,0-3.4-0.7-3.4-0.7c16.1-2.1,18.7-5.7,19.2-7.7c4.4-3.5,2.6-6.5,2.6-6.5h-0.1c-0.9,0-3,4.4-16.9,7.7
	c-7.2,1.7-14.3,3.3-21.6,3.3c-1.6,0-3.1-0.1-4.7-0.3C288,10.7,276,9.1,267.3,9.1c-12.5,0-18.1,3.3-24.6,14.2
	c-1.7,4.2-3.6,7.4-6,10.3c-0.8-2.7-2.5-5.7-4.2-8.3l0.8-0.7c-1.3-1-1.3-2.1-2.3-2.6l0,0c0.7,0.3,1.6,0.7,2,0.7
	c0.3,0,0.4-0.1,0.4-0.4l-2.9-3.3c0,0,0.9,0.1,1.8,0.4c-1.3-2.5-1.4-3.1-1.4-3.1l1.4,0.4l-1.6-3.1c0.7-1.2-1.7-6-1.8-7.2
	c-0.3-2.5-1-4-3.1-6C225.5,0,225.4,0,225.3,0C224.9,0,224.5,0.3,224.2,0.5"/>
<path class="st0" d="M0,199.7v-11.3h2.9l1.6,8.5c0,0,3.1,1,4.8,1c3.5,0,6.1-3.1,6.1-7.5v-26.9l-7-1.3v-2.3h19.9v2.3l-7.2,1.4v26.4
	c0,6.9-6,11.2-11.7,11.2C5.6,201.2,2.3,200.6,0,199.7"/>
<polygon class="st0" points="51.5,201.1 39,162.8 34.6,161.8 34.6,159.5 51.8,159.5 51.8,161.7 45.8,163.1 54.5,192.9 54.8,192.9 
	66.9,159.5 71.8,159.5 82.5,193 82.7,193 93,163 87.5,161.8 87.5,159.5 102.2,159.5 102.2,161.7 97.4,163 82.7,201.1 79.2,201.1 
	68.2,167.5 67.6,167.5 55.1,201.1 "/>
<polygon class="st0" points="166.1,198.2 172.1,196.9 169.6,167.4 169.3,167.4 156.6,201.1 153.1,201.1 140.7,166.9 140.5,166.9 
	137.9,196.7 144,198.2 144,200.6 127.2,200.6 127.2,198.2 133.6,196.9 137,163.2 130.7,161.8 130.7,159.3 144.4,159.3 155.8,192.9 
	156.1,192.9 167.9,159.3 181.2,159.3 181.2,161.7 174.9,163.2 178.3,196.9 184.8,198.2 184.8,200.6 166.1,200.6 "/>
<path class="st0" d="M206.8,181.7H218l-4.8-16.3h-0.4L206.8,181.7z M217.9,198.5l4.8-1.2l-3.6-12.2h-13.5l-4.4,11.8l5.6,1.4v2.2
	h-15.3v-2.1l5.2-1.4l15.2-37.6h4.3l13.1,37.8l4.9,1.2v2.2h-16.5v-2.2H217.9z"/>
<path class="st0" d="M255.1,162.8v15.9h3.4c6.4-0.3,11.3-2.2,11.3-7.7s-3.6-8.2-10.1-8.3h-4.6V162.8z M261.2,181.8
	c-0.8,0.1-1.7,0.1-2.6,0.1h-3.5v15l7.2,1.3v2.3h-19.8v-2.3l7-1.4v-33.7l-7-1.3v-2.3h19.2c8.1,0,13.8,3.6,13.8,11.3
	c0,5.1-2.7,8.6-8.2,10.1l9.8,15.5l5.2,2v2.2h-9.8L261.2,181.8z"/>
<path class="st0" d="M302.7,162.8v15.9h3.4c6.4-0.3,11.3-2.2,11.3-7.7s-3.6-8.2-10.1-8.3h-4.6V162.8z M308.6,181.8
	c-0.8,0.1-1.7,0.1-2.6,0.1h-3.5v15l7.2,1.3v2.3h-19.8v-2.3l7-1.4v-33.7l-7-1.3v-2.3h19.2c8.1,0,13.8,3.6,13.8,11.3
	c0,5.1-2.7,8.6-8.2,10.1l9.8,15.5l5.2,2v2.2H320L308.6,181.8z"/>
<polygon class="st0" points="338.4,198.2 345.3,196.8 345.3,163.1 338.4,161.8 338.4,159.3 358.2,159.3 358.2,161.7 351.1,163.1 
	351.1,196.8 358.2,198.2 358.2,200.6 338.4,200.6 "/>
<path class="st0" d="M385.9,161.7c-8.8,0-14.4,7.2-14.4,17.9c0,10.1,5.1,18.5,13.9,18.5c9.6,0,14.4-8.6,14.4-18.3
	C400,169.3,394.6,161.7,385.9,161.7 M385.3,201.1c-12.2,0-20.2-8.1-20.2-20c0-13,8.6-22.4,21.2-22.4c12.4,0,20,8.2,20,19.6
	C406.3,190.4,398.4,201.1,385.3,201.1"/>
<polygon class="st0" points="420.1,198.2 427.1,196.8 427.1,162.7 417.9,162.7 414.5,171.2 412.4,171.2 412.4,159.3 447.7,159.3 
	447.7,171.2 445.6,171.2 441.8,162.7 432.9,162.7 432.9,196.8 440,198.2 440,200.6 420.1,200.6 "/>
<polygon class="st0" points="461.3,198.2 468.4,196.8 468.4,162.7 459.1,162.7 455.8,171.2 453.7,171.2 453.7,159.3 489.1,159.3 
	489.1,171.2 487,171.2 483.1,162.7 474.2,162.7 474.2,196.8 481.2,198.2 481.2,200.6 461.3,200.6 "/>
<path class="st0" d="M490.5,195h1c0.9,0,1.7,0,1.7-1c0-0.9-0.8-1-1.4-1h-1.3L490.5,195L490.5,195z M489.4,192.1h2.5
	c1.4,0,2.2,0.7,2.2,1.8s-0.8,1.7-1.7,1.7l1.8,2.9h-1l-1.7-2.7h-1v2.7h-1L489.4,192.1L489.4,192.1z M491.5,200c2.5,0,4.4-2.1,4.4-4.7
	s-2-4.7-4.4-4.7c-2.5,0-4.4,2.1-4.4,4.7S489.1,200,491.5,200 M491.5,189.8c3,0,5.5,2.3,5.5,5.5c0,3.1-2.5,5.6-5.5,5.6
	s-5.5-2.3-5.5-5.6C486.2,192.1,488.7,189.8,491.5,189.8"/>
</svg>
