<?xml version="1.0" encoding="utf-8"?>
<!-- Generator: Adobe Illustrator 23.0.2, SVG Export Plug-In . SVG Version: 6.00 Build 0)  -->
<svg version="1.1" id="Layer_1" xmlns="http://www.w3.org/2000/svg" xmlns:xlink="http://www.w3.org/1999/xlink" x="0px" y="0px"
	 viewBox="0 0 193 34" style="enable-background:new 0 0 193 34;" xml:space="preserve">
<style type="text/css">
	.st0{fill:#FFFFFF;}
</style>
<path class="st0" d="M23.7,31.3c-2.5-1.6-4.4-7.1-4.4-13.6c0-0.2,0-0.5,0-0.7l0,0C12.3,15.9,7.1,12.8,7,9.2l0,0
	c-1.7,2.1-2.7,4.6-2.7,7.3C4.3,24.3,12.8,30.7,23.7,31.3L23.7,31.3z M1,17.1C1,8.4,11.9,1.3,25.2,1.3s24.2,7.1,24.2,15.8
	S38.6,32.9,25.2,32.9S1,25.8,1,17.1z M25.2,3.6c2.6,0,4.8,3.9,5.6,9.4l0,0c5-0.8,8.5-2.6,8.5-4.7c0-2.8-6.3-5.1-14.1-5.1
	S11.1,5.5,11.1,8.3c0,2.1,3.5,3.9,8.5,4.7l0,0C20.5,7.5,22.7,3.6,25.2,3.6z M26.8,31.3c10.8-0.6,19.4-6.9,19.4-14.7
	c0-2.6-1-5.1-2.7-7.3l0,0c-0.1,3.6-5.2,6.6-12.3,7.8l0,0c0,0.2,0,0.5,0,0.7C31.2,24.2,29.3,29.7,26.8,31.3L26.8,31.3z M25.2,13.4
	c1.2,0,2.3,0,3.4-0.1l0,0c-0.5-3.5-1.8-6-3.4-6c-1.5,0-2.8,2.5-3.4,6l0,0C23,13.4,24.1,13.4,25.2,13.4z M25.2,26.4
	c1.9,0,3.5-4,3.6-9.1l0,0c-1.2,0.1-2.4,0.2-3.6,0.2s-2.5-0.1-3.6-0.2l0,0C21.7,22.3,23.3,26.4,25.2,26.4z"/>
<path class="st0" d="M124.7,17.1c0-6.7,5.4-12.1,12.1-12.1c6.7,0,12.1,5.4,12.1,12.1c0,6.7-5.4,12.1-12.1,12.1
	C130.1,29.2,124.7,23.8,124.7,17.1z M136.7,24.8c3.7,0,6.7-3.4,6.7-7.6c0-4.2-3-7.6-6.7-7.6c-3.7,0-6.7,3.4-6.7,7.6
	S133,24.8,136.7,24.8z"/>
<path class="st0" d="M162.5,10.1v18.6h-5.1V10.1h0h-7.1V5.9h19.3v4.2L162.5,10.1L162.5,10.1L162.5,10.1z"/>
<path class="st0" d="M175.7,23.5L175.7,23.5l-2,5.1h-5.9l9.4-22.7h3.2h3.2l9.4,22.7H187l-2-5.1l0,0h-4.7H175.7z M180.4,19.7h3.2l0,0
	l-3.2-8.3h0l-3.2,8.3l0,0H180.4z"/>
<path class="st0" d="M68.8,10.1v18.6h-5.1V10.1h0h-7.1V5.9h19.3v4.2L68.8,10.1L68.8,10.1L68.8,10.1z"/>
<path class="st0" d="M77.2,17.1c0-6.7,5.4-12.1,12.1-12.1c6.7,0,12.1,5.4,12.1,12.1c0,6.7-5.4,12.1-12.1,12.1
	C82.6,29.2,77.2,23.8,77.2,17.1z M89.2,24.8c3.7,0,6.7-3.4,6.7-7.6c0-4.2-3-7.6-6.7-7.6c-3.7,0-6.7,3.4-6.7,7.6S85.5,24.8,89.2,24.8
	z"/>
<path class="st0" d="M113,28.6h2.6v-8.5V20l8.9-14.1h-5.9l-5.5,9.6l-5.5-9.6h-5.9l8.9,14.1v0.1v8.5L113,28.6L113,28.6z"/>
</svg>
