<?xml version="1.0" encoding="utf-8"?>
<!-- Generator: Adobe Illustrator 23.0.2, SVG Export Plug-In . SVG Version: 6.00 Build 0)  -->
<svg version="1.1" id="Layer_1" xmlns="http://www.w3.org/2000/svg" xmlns:xlink="http://www.w3.org/1999/xlink" x="0px" y="0px"
	 viewBox="0 0 264.1 231" style="enable-background:new 0 0 264.1 231;" xml:space="preserve">
<style type="text/css">
	.st0{fill:#FFFFFF;}
	.st1{fill:#0A2240;}
	.st2{fill:#C10230;}
	.st3{clip-path:url(#SVGID_2_);fill:#C10230;}
	.st4{clip-path:url(#SVGID_4_);fill:#FFFFFF;}
	.st5{fill:#FEFEFE;}
</style>
<g>
	<polygon class="st0" points="91.5,48.7 89.3,48.7 89.8,46.2 98,46.2 97.5,48.7 95.2,48.7 93.8,55.4 90.1,55.4 	"/>
	<path class="st0" d="M91.5,54.3h1.3l1.4-6.7h2.3v-0.2h-5.8v0.2H93L91.5,54.3L91.5,54.3z M94.7,56.6h-6l1.4-6.7h-2.3l1-4.7h10.5
		l-1,4.7H96L94.7,56.6L94.7,56.6z"/>
	<path class="st0" d="M101.7,50.1c0.7,0,1.3-0.2,1.4-0.9c0.1-0.7-0.3-0.8-1-0.8h-0.3l-0.4,1.7L101.7,50.1L101.7,50.1z M98.7,46.2
		h5.4c2,0,3,0.6,2.6,2.3c-0.2,1.1-0.8,1.9-2.3,2.2l0,0c0.9,0.1,1.3,0.5,1.3,1.2c0,0.8-0.3,2.1-0.1,3.5H102c-0.1-0.7,0.1-1.8,0.1-2.6
		c0-0.5-0.2-0.6-0.8-0.6h-0.4l-0.7,3.3h-3.5L98.7,46.2L98.7,46.2z"/>
	<path class="st0" d="M103.3,47.4c0.2,0.1,0.5,0.3,0.7,0.5c0.2,0.3,0.5,0.8,0.3,1.5c0,0.1,0,0.2-0.1,0.3l0,0c1-0.2,1.3-0.7,1.4-1.3
		c0.1-0.4,0-0.6,0-0.7c0,0-0.3-0.3-1.5-0.3H103.3L103.3,47.4z M98.1,54.3h1.2l0.7-3.1l0,0l0.8-3.8h-1.2L98.1,54.3L98.1,54.3z
		 M103.2,54.3h1.3c0-0.5,0.1-0.9,0.1-1.3s0.1-0.8,0.1-1l0,0c0,0-0.1,0-0.3,0l-1.3-0.1l0.2-1c-0.3,0.2-0.6,0.3-1,0.4
		c0.2,0.1,0.4,0.2,0.6,0.4c0.3,0.3,0.5,0.8,0.4,1.3c0,0.2,0,0.5-0.1,0.8C103.2,53.8,103.2,54.1,103.2,54.3L103.2,54.3z M106.9,56.6
		H95.3l2.4-11.5h6.4c1,0,2.5,0.1,3.3,1.1c0.5,0.7,0.7,1.5,0.5,2.6c-0.2,0.9-0.6,1.6-1.2,2.1c0.1,0.3,0.2,0.6,0.2,1s0,0.8-0.1,1.3
		c-0.1,0.6-0.1,1.4-0.1,2.1L106.9,56.6L106.9,56.6z"/>
	<polygon class="st0" points="108.3,46.2 112,46.2 110,55.4 106.4,55.4 	"/>
	<path class="st0" d="M107.8,54.3h1.3l1.5-6.9h-1.3L107.8,54.3L107.8,54.3z M111,56.6h-6l2.4-11.5h6L111,56.6L111,56.6z"/>
	<path class="st0" d="M117.2,51.7v-3.5l0,0l-1.5,3.5H117.2L117.2,51.7z M115.3,46.2h4.7l1,9.2h-3.8v-1.5h-2.6l-0.7,1.5h-3.5
		L115.3,46.2L115.3,46.2z"/>
	<path class="st0" d="M112.3,54.3h0.9l0.7-1.5l2.4-5.5H116L112.3,54.3L112.3,54.3z M118.4,54.3h1.4l-0.8-6.9h-0.7v5.5l0,0
		L118.4,54.3L118.4,54.3z M122.3,56.6h-6.1v-1.5h-0.8l-0.7,1.5h-6.1l6.1-11.5h6.4L122.3,56.6L122.3,56.6z"/>
	<polygon class="st0" points="123.9,48.7 121.6,48.7 122.1,46.2 130.3,46.2 129.8,48.7 127.5,48.7 126.1,55.4 122.4,55.4 	"/>
	<path class="st0" d="M123.8,54.3h1.3l1.4-6.7h2.3v-0.2h-5.9v0.2h2.3L123.8,54.3L123.8,54.3z M127,56.6h-6l1.4-6.7h-2.3l1-4.7h10.6
		l-1,4.7h-2.3L127,56.6L127,56.6z"/>
	<polygon class="st0" points="135,52 133.4,52 132.7,55.4 129,55.4 131,46.2 134.6,46.2 134,49.3 135.5,49.3 136.2,46.2 139.8,46.2 
		137.9,55.4 134.2,55.4 	"/>
	<path class="st0" d="M135.6,54.3h1.3l1.5-6.9h-1.3l-0.7,3.1h-3.9l0.7-3.1h-1.3l-1.5,6.9h1.3l0.7-3.4h3.9L135.6,54.3L135.6,54.3z
		 M138.8,56.6h-11.2l2.4-11.5h11.2L138.8,56.6L138.8,56.6z"/>
	<polygon class="st0" points="141.1,46.2 144.8,46.2 143.4,53 146.7,53 146.2,55.4 139.2,55.4 	"/>
	<path class="st0" d="M140.6,54.3h4.7v-0.2h-3.4l1.4-6.7H142L140.6,54.3L140.6,54.3z M147.1,56.6h-9.3l2.4-11.5h6l-1.4,6.7h3.4
		L147.1,56.6L147.1,56.6z"/>
	<path class="st0" d="M151.8,53.3c0.6,0,1-0.3,1.5-2.4c0.4-2.1,0.1-2.4-0.5-2.4s-1.1,0.4-1.5,2.4C150.9,53,151.3,53.3,151.8,53.3
		L151.8,53.3z M153.4,46c3.2,0,4.3,2,3.7,4.8c-0.6,2.9-2.6,4.8-5.8,4.8s-4.3-2-3.7-4.8S150.2,46,153.4,46L153.4,46z"/>
	<path class="st0" d="M151.8,54.4c-0.7,0-1.2-0.3-1.4-0.6c-0.6-0.7-0.5-1.8-0.2-3.2c0.2-1.2,0.7-3.3,2.6-3.3c0.7,0,1.2,0.3,1.4,0.6
		c0.6,0.7,0.5,1.8,0.2,3.2C154.1,52.8,153.5,54.4,151.8,54.4L151.8,54.4z M153.4,47.1c-3.3,0-4.4,2.5-4.7,3.9
		c-0.2,0.8-0.3,2,0.3,2.7c0.4,0.5,1.2,0.8,2.3,0.8c3.3,0,4.4-2.5,4.7-3.9c0.2-0.8,0.3-2-0.3-2.7C155.3,47.4,154.5,47.1,153.4,47.1
		L153.4,47.1z M151.3,56.8c-2.3,0-3.5-0.9-4.1-1.6c-0.9-1.1-1.2-2.7-0.8-4.6c0.8-3.6,3.3-5.7,6.9-5.7c2.3,0,3.5,0.9,4.1,1.6
		c0.9,1.1,1.2,2.7,0.8,4.6C157.5,54.7,154.9,56.8,151.3,56.8L151.3,56.8z"/>
	<polygon class="st0" points="159.1,46.2 163.4,46.2 164.2,51.8 164.2,51.8 165.4,46.2 168.4,46.2 166.4,55.4 162.1,55.4 
		161.3,49.8 161.3,49.8 160.1,55.4 157.1,55.4 	"/>
	<path class="st0" d="M163,54.3h2.5l1.5-6.9h-0.6l-1.2,5.6h-1.9l-0.2-1l-0.6-4.6H160l-1.5,6.9h0.6l1.2-5.6h1.9l0.2,1L163,54.3
		L163,54.3z M167.3,56.6H161v-0.2v0.2h-5.3l2.4-11.5h6.3v0.2v-0.2h5.3L167.3,56.6L167.3,56.6z"/>
	<path class="st0" d="M116.5,35.7c-1.1,4.7-5.2,7.1-11.5,7.1s-9.4-2.3-8.3-7.1l3-13h8.3l-2.9,12.6c-0.3,1.5,0.3,2.1,1.2,2.1
		s1.8-0.6,2.1-2.1l2.9-12.6h8.3L116.5,35.7L116.5,35.7z"/>
	<path class="st0" d="M100.5,23.9L97.7,36c-0.4,1.6-0.2,2.8,0.5,3.7c1,1.3,3.4,2,6.7,2c4.1,0,9.3-1.1,10.4-6.2l2.6-11.6H112
		l-2.7,11.8c-0.5,2.2-2,3-3.2,3c-0.8,0-1.4-0.3-1.9-0.8c-0.5-0.7-0.7-1.6-0.4-2.7l2.6-11.3L100.5,23.9L100.5,23.9z M105,43.9
		c-4.1,0-7-1-8.5-2.9c-1.1-1.4-1.5-3.3-1-5.6l3.2-13.9h10.6l-3.2,14c-0.1,0.5-0.1,0.7,0,0.7h0.1c0.7,0,0.9-0.9,1-1.3l3.1-13.5h10.6
		l-3.3,14.4C116.4,41.1,111.9,43.9,105,43.9L105,43.9z"/>
	<path class="st0" d="M131.6,28.3c0.2-1.2-0.4-1.6-1.5-1.6c-1.3,0-2,0.5-2.2,1.1c-0.2,0.7,0.3,1,1.1,1.2c1.5,0.4,4.3,1,6.2,1.8
		c2.4,1,3.2,2.8,2.6,5.1c-1.1,4.8-5.7,6.8-11.6,6.8c-5,0-9.3-1.5-8.2-6.5h7.9c-0.1,0.5-0.1,1.1,0.1,1.5c0.2,0.4,0.7,0.6,1.5,0.6
		c1.2,0,2.2-0.7,2.4-1.6c0.2-0.7-0.4-1.1-1.1-1.3l-5.5-1.6c-3-0.9-3.7-2.7-3.2-5.2c0.9-4.1,4.9-6.3,11-6.3c5.2,0,8.8,1.5,7.7,6.1
		h-7.2V28.3z"/>
	<path class="st0" d="M129.3,27.9C129.4,27.9,129.4,27.9,129.3,27.9c0.4,0.1,0.7,0.2,1.1,0.3V28c0-0.1,0-0.2,0-0.2
		c-0.1,0-0.2,0-0.4,0C129.8,27.8,129.5,27.9,129.3,27.9L129.3,27.9z M127.1,37.1c0,0,0.2,0.1,0.5,0.1c0.7,0,1.1-0.3,1.2-0.6
		c-0.1,0-0.1-0.1-0.3-0.1l-1.3-0.4l-0.1,0.4C127.1,36.8,127.1,37,127.1,37.1L127.1,37.1z M119.1,37.4c-0.1,1,0.1,1.8,0.6,2.4
		c1,1.2,3.3,1.9,6.6,1.9c4.2,0,9.4-1,10.5-5.9c0.4-1.9-0.2-3.1-2-3.8c-1.3-0.6-3-1-4.4-1.3c-0.6-0.2-1.2-0.3-1.6-0.4
		c-1.9-0.6-2.1-1.7-1.9-2.6c0.2-1,1.2-2,3.3-2c1,0,1.7,0.3,2.2,0.8c0.2,0.2,0.3,0.5,0.4,0.8h5.3c0.1-0.9-0.1-1.5-0.5-2.1
		c-0.9-1.1-3.1-1.7-6.2-1.7c-5.5,0-9.2,2-9.9,5.5c-0.5,2.2,0.1,3.2,2.4,3.9l5.5,1.6c2.2,0.6,2,2.2,1.9,2.7c-0.3,1.4-1.8,2.5-3.5,2.5
		c-1.4,0-2.1-0.6-2.4-1.2l0,0c-0.2-0.3-0.3-0.6-0.3-0.9h-6V37.4z M126.3,43.9c-4.1,0-6.9-0.9-8.4-2.8c-1.1-1.3-1.4-3.1-0.9-5.2
		l0.2-0.9h6.6l-0.7-0.2c-3.4-1-4.7-3.2-3.9-6.6c1-4.6,5.5-7.2,12.2-7.2c4,0,6.6,0.8,8,2.6c1,1.3,1.3,2.9,0.8,4.9l-0.2,0.9h-5.2
		c0.3,0.1,0.7,0.3,1,0.4c2.8,1.2,4,3.4,3.3,6.4C137.9,41.2,133.4,43.9,126.3,43.9L126.3,43.9z"/>
	<path class="st0" d="M151.7,34.4v-7.3l0,0l-3.5,7.3H151.7L151.7,34.4z M147.5,22.7h10.7l2.3,19.5h-8.6l-0.1-3.1h-6l-1.6,3.1h-7.9
		L147.5,22.7L147.5,22.7z"/>
	<path class="st0" d="M150,33.2h0.6v-1.3L150,33.2L150,33.2z M152.8,35.5h-6.5l4.6-9.6h1.9V35.5L152.8,35.5z M153,41.1h6.2l-2-17.2
		h-9.1l-9.8,17.2h5.3l1.6-3.1h7.8V41.1L153,41.1z M161.8,43.4h-10.9l-0.1-3.1h-4.2l-1.6,3.1h-10.6l12.4-21.8h12.4L161.8,43.4
		L161.8,43.4z"/>
	<polygon class="st1" points="91.5,48.7 89.3,48.7 89.8,46.2 98,46.2 97.5,48.7 95.2,48.7 93.8,55.4 90.1,55.4 	"/>
	<path class="st1" d="M101.7,50.1c0.7,0,1.3-0.2,1.4-0.9c0.1-0.7-0.3-0.8-1-0.8h-0.3l-0.4,1.7L101.7,50.1L101.7,50.1z M98.7,46.2
		h5.4c2,0,3,0.6,2.6,2.3c-0.2,1.1-0.8,1.9-2.3,2.2l0,0c0.9,0.1,1.3,0.5,1.3,1.2c0,0.8-0.3,2.1-0.1,3.5H102c-0.1-0.7,0.1-1.8,0.1-2.6
		c0-0.5-0.2-0.6-0.8-0.6h-0.4l-0.7,3.3h-3.5L98.7,46.2L98.7,46.2z"/>
	<polygon class="st1" points="108.3,46.2 112,46.2 110,55.4 106.4,55.4 	"/>
	<path class="st1" d="M117.2,51.7v-3.5l0,0l-1.5,3.5H117.2L117.2,51.7z M115.3,46.2h4.7l1,9.2h-3.8v-1.5h-2.6l-0.7,1.5h-3.5
		L115.3,46.2L115.3,46.2z"/>
	<polygon class="st1" points="123.9,48.7 121.6,48.7 122.1,46.2 130.3,46.2 129.8,48.7 127.5,48.7 126.1,55.4 122.4,55.4 	"/>
	<polygon class="st1" points="135,52 133.4,52 132.7,55.4 129,55.4 131,46.2 134.6,46.2 134,49.3 135.5,49.3 136.2,46.2 139.8,46.2 
		137.9,55.4 134.2,55.4 	"/>
	<polygon class="st1" points="141.1,46.2 144.8,46.2 143.4,53 146.7,53 146.2,55.4 139.2,55.4 	"/>
	<path class="st1" d="M151.8,53.3c0.6,0,1-0.3,1.5-2.4c0.4-2.1,0.1-2.4-0.5-2.4s-1.1,0.4-1.5,2.4C150.9,53,151.3,53.3,151.8,53.3
		L151.8,53.3z M153.4,46c3.2,0,4.3,2,3.7,4.8c-0.6,2.9-2.6,4.8-5.8,4.8s-4.3-2-3.7-4.8S150.2,46,153.4,46L153.4,46z"/>
	<polygon class="st1" points="159.1,46.2 163.4,46.2 164.2,51.8 164.2,51.8 165.4,46.2 168.4,46.2 166.4,55.4 162.1,55.4 
		161.3,49.8 161.3,49.8 160.1,55.4 157.1,55.4 	"/>
	<path class="st2" d="M116.5,35.7c-1.1,4.7-5.2,7.1-11.5,7.1s-9.4-2.3-8.3-7.1l3-13h8.3l-2.9,12.6c-0.3,1.5,0.3,2.1,1.2,2.1
		s1.8-0.6,2.1-2.1l2.9-12.6h8.3L116.5,35.7L116.5,35.7z"/>
	<path class="st2" d="M131.6,28.3c0.2-1.2-0.4-1.6-1.5-1.6c-1.3,0-2,0.5-2.2,1.1c-0.2,0.7,0.3,1,1.1,1.2c1.5,0.4,4.3,1,6.2,1.8
		c2.4,1,3.2,2.8,2.6,5.1c-1.1,4.8-5.7,6.8-11.6,6.8c-5,0-9.3-1.5-8.2-6.5h7.9c-0.1,0.5-0.1,1.1,0.1,1.5c0.2,0.4,0.7,0.6,1.5,0.6
		c1.2,0,2.2-0.7,2.4-1.6c0.2-0.7-0.4-1.1-1.1-1.3l-5.5-1.6c-3-0.9-3.7-2.7-3.2-5.2c0.9-4.1,4.9-6.3,11-6.3c5.2,0,8.8,1.5,7.7,6.1
		h-7.2V28.3z"/>
	<g>
		<g>
			<defs>
				<rect id="SVGID_1_" x="75.4" y="21.1" width="107.9" height="81.5"/>
			</defs>
			<clipPath id="SVGID_2_">
				<use xlink:href="#SVGID_1_"  style="overflow:visible;"/>
			</clipPath>
			<path class="st3" d="M151.7,34.4v-7.3l0,0l-3.5,7.3H151.7L151.7,34.4z M147.5,22.7h10.7l2.3,19.5h-8.6l-0.1-3.1h-6l-1.6,3.1h-7.9
				L147.5,22.7L147.5,22.7z"/>
		</g>
		<g>
			<defs>
				<rect id="SVGID_3_" x="75.4" y="21.1" width="107.9" height="81.5"/>
			</defs>
			<clipPath id="SVGID_4_">
				<use xlink:href="#SVGID_3_"  style="overflow:visible;"/>
			</clipPath>
			<path class="st4" d="M124.6,94.4c-10-19.4-27.8-24.7-49.2-22.7l1.6-2.8c0.3-0.6,7.1-11.3,34.4-11.3c16,0,21,4.7,34.4,8.1
				c9.5,2.4,19.3,1.5,28.9,2.5c0,0,8.8,1.4,8.6,1.3l-8,2c-19.1,4.2-36.8,14.7-47.6,31.1C127.7,102.5,126.1,97.2,124.6,94.4
				L124.6,94.4L124.6,94.4z"/>
		</g>
	</g>
	<path class="st2" d="M175,69.7c-3,0.7-5.9,1.5-8.6,2.4c5.4-1.7,9-2.3,9-2.3C175.4,69.7,175.2,69.7,175,69.7L175,69.7z"/>
	<path class="st2" d="M167.9,69.2c-33.2,7.4-44.7,12.5-47.8,13.9c5.1,5.5,7.6,11,8.6,13.6c11.2-14.4,27.6-21.5,37.7-24.7
		c2.7-0.9,5.6-1.7,8.6-2.4C173.4,69.5,167.9,69.2,167.9,69.2L167.9,69.2z"/>
	<path class="st2" d="M152.1,68.7c-12.5,0.2-37.5,2.9-46.1,4.8c5.1,2.2,9.1,5.2,12.3,8.3c3.9-1.8,16-6.9,44.2-12.3
		C160.6,69.4,155.4,69.2,152.1,68.7L152.1,68.7z"/>
	<path class="st1" d="M112.4,59.2c-26.6,0-32.7,10.4-32.7,10.4c9.5-0.9,17.4,0.3,23.7,2.6c7.4-1.8,30.4-4.3,43.8-4.8
		C135.4,64.6,129.4,59.2,112.4,59.2L112.4,59.2z"/>
	<polygon class="st0" points="106.5,64.3 106.3,59.8 108.9,63.5 113.1,61.9 110.4,65.5 113.2,69.1 108.9,67.6 106.4,71.4 
		106.5,66.9 102.1,65.6 	"/>
	<polygon class="st0" points="95.1,64.7 95,61.4 96.9,64.1 100,63 98,65.6 100,68.2 96.9,67.2 95,69.9 95.1,66.6 91.9,65.7 	"/>
	<polygon class="st0" points="120.2,63.8 120.1,60.7 121.9,63.2 124.7,62.2 122.9,64.6 124.8,67 121.9,66 120.2,68.6 120.2,65.5 
		117.3,64.7 	"/>
	<path class="st2" d="M174.9,69.8c-3,0.7-5.9,1.5-8.6,2.4c5.4-1.7,9-2.3,9-2.3C175.3,69.8,175.2,69.8,174.9,69.8L174.9,69.8z"/>
	<path class="st5" d="M170.5,46.1L170.5,46.1c0.2,0,0.3,0,0.3-0.1s-0.1-0.1-0.2-0.1c-0.1,0-0.1,0-0.1,0V46.1L170.5,46.1z
		 M170.5,46.6h-0.2v-0.9c0.1,0,0.2,0,0.3,0c0.2,0,0.2,0,0.3,0.1c0,0,0.1,0.1,0.1,0.2s-0.1,0.2-0.2,0.2l0,0c0.1,0,0.1,0.1,0.2,0.2
		c0,0.1,0,0.2,0.1,0.2h-0.2c0,0,0-0.1-0.1-0.2c0-0.1-0.1-0.1-0.2-0.1h-0.1L170.5,46.6L170.5,46.6z M170.6,45.4
		c-0.4,0-0.7,0.3-0.7,0.7c0,0.4,0.3,0.7,0.7,0.7s0.7-0.3,0.7-0.7C171.3,45.7,171,45.4,170.6,45.4L170.6,45.4L170.6,45.4z
		 M170.6,45.3c0.5,0,0.9,0.4,0.9,0.9s-0.4,0.9-0.9,0.9s-0.9-0.4-0.9-0.9C169.7,45.6,170.1,45.3,170.6,45.3L170.6,45.3L170.6,45.3z"
		/>
	<path class="st1" d="M170.5,46.1L170.5,46.1c0.2,0,0.3,0,0.3-0.1s-0.1-0.1-0.2-0.1c-0.1,0-0.1,0-0.1,0V46.1L170.5,46.1z
		 M170.5,46.6h-0.2v-0.9c0.1,0,0.2,0,0.3,0c0.2,0,0.2,0,0.3,0.1c0,0,0.1,0.1,0.1,0.2s-0.1,0.2-0.2,0.2l0,0c0.1,0,0.1,0.1,0.2,0.2
		c0,0.1,0,0.2,0.1,0.2h-0.2c0,0,0-0.1-0.1-0.2c0-0.1-0.1-0.1-0.2-0.1h-0.1L170.5,46.6L170.5,46.6z M170.6,45.4
		c-0.4,0-0.7,0.3-0.7,0.7c0,0.4,0.3,0.7,0.7,0.7s0.7-0.3,0.7-0.7C171.3,45.7,171,45.4,170.6,45.4L170.6,45.4L170.6,45.4z
		 M170.6,45.3c0.5,0,0.9,0.4,0.9,0.9s-0.4,0.9-0.9,0.9s-0.9-0.4-0.9-0.9C169.7,45.6,170.1,45.3,170.6,45.3L170.6,45.3L170.6,45.3z"
		/>
</g>
<g>
	<rect x="53.2" y="183.4" class="st2" width="152.2" height="1.3"/>
</g>
<g>
	<path class="st2" d="M23.6,150.8c-3.7-11.1-5.7-23-5.7-35.3C17.9,54,67.9,4,129.4,4s111.5,50,111.5,111.5c0,12.3-2,24.2-5.7,35.3
		h4.3c3.6-11.1,5.5-23,5.5-35.3C245,51.8,193.2,0,129.5,0S13.8,51.8,13.8,115.5c0,12.3,1.9,24.2,5.5,35.3H23.6z"/>
	<path class="st2" d="M222.4,176.8c-20,30.2-54.2,50.2-93.1,50.2s-73.1-20-93.1-50.2h-4.8c20.5,32.5,56.7,54.2,97.9,54.2
		s77.4-21.7,97.9-54.2H222.4z"/>
</g>
<g>
	<path class="st0" d="M106.3,113.5h3.6l-0.8,9.5l4.1-9.5h4.4l-0.1,9.4l3.2-9.4h3.3l-5,13h-4.3l-0.2-9.6l-4.4,9.6h-4.4L106.3,113.5z"
		/>
	<path class="st0" d="M125.4,113.5h9.8l-0.5,2.5h-6.2l-0.6,2.7h5.8l-0.5,2.5h-5.8l-0.6,2.8h6.3l-0.5,2.5h-9.9L125.4,113.5z"/>
	<path class="st0" d="M138.6,122.4c-0.1,0.5-0.4,2,1.8,2c0.3,0,1.9,0,2.2-1.5c0.1-0.6,0-1-0.8-1.3l-3-0.8c-0.9-0.2-3-0.8-2.5-3.6
		c0.4-2.1,2.4-4.1,6.3-4.1c5.1,0,4.7,2.8,4.4,4.1h-3.7c0.1-0.4,0.4-1.8-1.3-1.8c-1,0-1.8,0.6-2,1.4c-0.2,1,0.5,1.2,1,1.3l2.3,0.6
		c1.6,0.5,3.6,1,3,3.7c-0.6,2.9-3.4,4.2-6.6,4.2c-1.3,0-3.5-0.2-4.4-1.5c-0.7-1-0.5-2.3-0.4-2.9h3.7V122.4z"/>
	<path class="st0" d="M152.4,116.1h-4l0.5-2.6h11.6l-0.5,2.6h-4.1l-2.2,10.4h-3.6L152.4,116.1z"/>
	<path class="st0" d="M38.7,136.5c2-1.7,4.5-1.8,5.5-1.8c5.2,0,5.8,3.7,5.1,6.9c-1.1,5.2-5.1,6.8-8.2,6.8c-3.5,0-6.3-1.9-5.2-6.8
		C36.1,140.8,36.7,138.2,38.7,136.5z M41.7,145.8c2.6,0,3.5-2.4,3.9-4.2s0.1-2.7-0.1-3.3c-0.4-0.7-1.2-0.9-2-0.9
		c-2.4,0-3.5,2.1-3.9,4.3C39.1,143.7,39.3,145.8,41.7,145.8z"/>
	<path class="st0" d="M52.7,135.1h3.7l-2.2,10.4H60l-0.5,2.6H50L52.7,135.1z"/>
	<path class="st0" d="M64.1,135.1l1.7,5.5l4.1-5.5h3.7l-6.9,8.4l-1,4.6h-3.6l1-4.8l-3.2-8.2H64.1z"/>
	<path class="st0" d="M75,135.1h5.7l0.3,8.8l3.9-8.8h5.7l-2.8,13h-3.4l2.5-10.9l-5.4,10.9h-3.2l-0.6-11l-2.2,11h-3.1L75,135.1z"/>
	<path class="st0" d="M93.2,135.1h6c1,0,2.3,0,3.2,0.7c1,0.7,1.4,1.8,1.1,3.5c-0.5,2.3-2.2,3.3-2.7,3.5c-1.1,0.6-2.7,0.6-3.4,0.6
		h-2.3l-1,4.7h-3.6L93.2,135.1z M95.5,140.9h1.6c0.9,0,2.3,0,2.7-1.7c0.3-1.6-0.9-1.7-2-1.7h-1.6L95.5,140.9z"/>
	<path class="st0" d="M105.9,135.1h3.7l-2.8,13h-3.7L105.9,135.1z"/>
	<path class="st0" d="M119.4,139.2c0.1-1.3-0.7-1.8-1.7-1.8c-2.2,0-3.3,2-3.8,4.4c-0.2,0.8-0.8,4.1,1.9,4.1c1.9,0,2.4-1.4,2.6-1.9
		h3.7c-0.9,4.1-5.1,4.4-6.8,4.4c-1.3,0-3.4-0.2-4.6-1.7c-1.1-1.5-0.9-3.6-0.6-4.9c0.4-1.8,1.2-3.6,2.7-5c1.7-1.5,3.4-1.9,5.3-1.9
		c2.1,0,3.6,0.5,4.4,1.6c0.8,1.1,0.6,2.3,0.5,2.8h-3.6V139.2z"/>
	<path class="st0" d="M128.8,142.3l-0.5,2.1h-5.1l0.5-2.1H128.8z"/>
	<path class="st0" d="M132.1,135.1h5.5c1.5,0,3.6,0.2,4.7,1.1c1.6,1.3,1.7,3.5,1.3,5.4c-0.6,2.9-2,5-4.8,6c-1.4,0.5-3,0.5-3.9,0.5
		h-5.5L132.1,135.1z M133.6,145.6h1.5c2.4,0,4.1-1,4.8-4.1c0.8-3.9-2.1-3.9-3.2-3.9h-1.4L133.6,145.6z"/>
	<path class="st0" d="M146.9,135.1h3.7l-2.8,13h-3.7L146.9,135.1z"/>
	<path class="st0" d="M154.3,144c-0.1,0.5-0.4,2,1.8,2c0.3,0,1.9,0,2.2-1.5c0.1-0.6,0-1-0.8-1.3l-3-0.8c-0.8-0.2-3-0.8-2.5-3.6
		c0.4-2.1,2.5-4.1,6.3-4.1c5.1,0,4.7,2.8,4.4,4.1H159c0.1-0.4,0.4-1.8-1.3-1.8c-1,0-1.8,0.6-2,1.4c-0.2,1,0.5,1.2,1,1.3l2.3,0.6
		c1.6,0.5,3.6,1,3,3.7c-0.6,2.9-3.4,4.2-6.6,4.2c-1.4,0-3.5-0.2-4.4-1.5c-0.7-1-0.5-2.3-0.4-2.9h3.7V144z"/>
	<path class="st0" d="M168,137.7h-4l0.5-2.6h11.6l-0.5,2.6h-3.9l-2.2,10.4h-3.6L168,137.7z"/>
	<path class="st0" d="M179.7,135.1h4.4l2.4,13h-4.1l-0.3-2.6h-5.2l-1.4,2.6h-3.6L179.7,135.1z M181.7,143.1l-0.5-5.5h-0.1l-3,5.5
		H181.7z"/>
	<path class="st0" d="M190.6,135.1h5l2.3,9.7l2-9.7h3.2l-2.8,13h-4.9l-2.3-10.1l-2.1,10.1h-3.2L190.6,135.1z"/>
	<path class="st0" d="M213,139.2c0.1-1.3-0.7-1.8-1.7-1.8c-2.2,0-3.3,2-3.8,4.4c-0.2,0.8-0.8,4.1,1.9,4.1c1.9,0,2.4-1.4,2.6-1.9h3.7
		c-0.9,4.1-5.1,4.4-6.8,4.4c-1.3,0-3.4-0.2-4.6-1.7c-1.1-1.5-0.9-3.6-0.6-4.9c0.4-1.8,1.2-3.6,2.7-5c1.7-1.5,3.4-1.9,5.3-1.9
		c2.1,0,3.6,0.5,4.4,1.6c0.8,1.1,0.6,2.3,0.5,2.8H213V139.2z"/>
	<path class="st0" d="M219.6,135.1h9.8l-0.5,2.5h-6.2l-0.6,2.7h5.8l-0.5,2.5h-5.8l-0.6,2.8h6.3l-0.5,2.5h-9.9L219.6,135.1z"/>
	<path class="st0" d="M2.7,156.7h6c2.3,0,3.2,0.1,3.8,0.9c0.3,0.4,0.7,1.1,0.4,2.5s-1,2-1.7,2.4c-0.9,0.5-1.8,0.6-2.1,0.7v0.1
		c2.5,0.1,2.4,1.2,2.3,3.2c-0.1,0.9-0.2,2.3-0.1,3.2H7.4c0-0.8,0.1-1.8,0.2-2.9c0.2-1.6,0.2-2.1-1.4-2.1H4.7l-1.1,5.1H0L2.7,156.7z
		 M5.1,162.3h1.4c0.8,0,1.2,0,1.5-0.1c0.8-0.3,1.2-1.1,1.3-1.5c0.3-1.6-1.1-1.6-2.1-1.6H5.8L5.1,162.3z"/>
	<path class="st0" d="M15.7,156.7h9.8l-0.5,2.5h-6.2l-0.6,2.7H24l-0.5,2.5h-5.8l-0.6,2.8h6.3l-0.5,2.5H13L15.7,156.7z"/>
	<path class="st0" d="M35.8,160.6c0.1-1.4-0.9-1.7-1.9-1.7c-2.5,0-3.8,2.2-4.3,4.3c-0.6,3,0.8,4.3,2.9,4.3c0.7,0,1.4-0.1,2-0.2
		l0.5-2.5h-2.8l0.5-2.5h6.1l-1.5,7c-2,0.4-4,0.7-5.9,0.7c-1.4,0-3.3-0.2-4.6-1.4c-1.4-1.2-1.7-3.3-1.3-5.4c0.3-1.6,1.3-3.7,3-5.2
		c1.9-1.5,4.2-1.7,5.8-1.7c2,0,3.6,0.4,4.4,1.5c0.7,1,0.5,2.1,0.4,2.7L35.8,160.6L35.8,160.6z"/>
	<path class="st0" d="M42.6,156.7h3.7l-2.8,13h-3.7L42.6,156.7z"/>
	<path class="st0" d="M49.7,158.1c2-1.7,4.5-1.8,5.5-1.8c5.2,0,5.8,3.7,5.1,6.9c-1.1,5.2-5.1,6.8-8.2,6.8c-3.5,0-6.3-1.9-5.2-6.8
		C47,162.4,47.7,159.8,49.7,158.1z M52.7,167.4c2.6,0,3.5-2.4,3.9-4.2s0.1-2.7-0.1-3.3c-0.4-0.7-1.2-0.9-2-0.9
		c-2.4,0-3.5,2.1-3.9,4.3C50.1,165.3,50.3,167.4,52.7,167.4z"/>
	<path class="st0" d="M63.7,156.7h5l2.3,9.7l2-9.7h3.2l-2.8,13h-4.9l-2.3-10.1l-2.1,10.1h-3.2L63.7,156.7z"/>
	<path class="st0" d="M82.8,156.7h4.4l2.4,13h-4.1l-0.3-2.6H80l-1.4,2.6H75L82.8,156.7z M84.8,164.7l-0.5-5.5h-0.1l-3,5.5H84.8z"/>
	<path class="st0" d="M93.7,156.7h3.7l-2.2,10.4h5.8l-0.5,2.6H91L93.7,156.7z"/>
	<path class="st0" d="M118.1,160.8c0.1-1.3-0.7-1.8-1.7-1.8c-2.2,0-3.3,2-3.8,4.4c-0.2,0.8-0.8,4.1,1.9,4.1c1.9,0,2.4-1.4,2.6-1.9
		h3.7c-0.9,4.1-5.1,4.4-6.8,4.4c-1.3,0-3.4-0.2-4.6-1.7c-1.1-1.5-0.9-3.6-0.6-4.9c0.4-1.8,1.2-3.6,2.7-5c1.7-1.5,3.4-1.9,5.3-1.9
		c2.1,0,3.6,0.5,4.4,1.6c0.8,1.1,0.6,2.3,0.5,2.8h-3.6V160.8z"/>
	<path class="st0" d="M124.6,156.7h3.6l-1.1,5.1h4.3l1.1-5.1h3.7l-2.8,13h-3.7l1.1-5.3h-4.4l-1.1,5.3h-3.6L124.6,156.7z"/>
	<path class="st0" d="M142.7,156.7h4.4l2.4,13h-4.1l-0.3-2.6h-5.2l-1.4,2.6h-3.6L142.7,156.7z M144.8,164.7l-0.5-5.5h-0.1l-3,5.5
		H144.8z"/>
	<path class="st0" d="M153.6,156.7h5.7l0.3,8.8l3.9-8.8h5.7l-2.8,13H163l2.5-10.9l-5.4,10.9h-3.2l-0.6-11l-2.2,11H151L153.6,156.7z"
		/>
	<path class="st0" d="M171.8,156.7h6c1,0,2.3,0,3.2,0.7c1,0.7,1.4,1.8,1.1,3.5c-0.5,2.3-2.2,3.3-2.7,3.5c-1.1,0.6-2.7,0.6-3.4,0.6
		h-2.3l-1,4.7h-3.6L171.8,156.7z M174.2,162.5h1.6c0.9,0,2.3,0,2.7-1.7c0.3-1.6-0.9-1.7-2-1.7h-1.6L174.2,162.5z"/>
	<path class="st0" d="M184.5,156.7h3.7l-2.8,13h-3.7L184.5,156.7z"/>
	<path class="st0" d="M191.6,158.1c2-1.7,4.5-1.8,5.5-1.8c5.2,0,5.8,3.7,5.1,6.9c-1.1,5.2-5.1,6.8-8.2,6.8c-3.5,0-6.3-1.9-5.2-6.8
		C189,162.4,189.7,159.8,191.6,158.1z M194.6,167.4c2.6,0,3.5-2.4,3.9-4.2s0.1-2.7-0.1-3.3c-0.4-0.7-1.2-0.9-2-0.9
		c-2.4,0-3.5,2.1-3.9,4.3C192.1,165.3,192.2,167.4,194.6,167.4z"/>
	<path class="st0" d="M205.7,156.7h5l2.3,9.7l2-9.7h3.2l-2.8,13h-4.9l-2.3-10.1l-2.1,10.1h-3.2L205.7,156.7z"/>
	<path class="st0" d="M221.9,165.6c-0.1,0.5-0.4,2,1.8,2c0.3,0,1.9,0,2.2-1.5c0.1-0.6,0-1-0.8-1.3l-3-0.8c-0.9-0.2-3-0.8-2.5-3.6
		c0.4-2.1,2.4-4.1,6.3-4.1c5.1,0,4.7,2.8,4.4,4.1h-3.6c0.1-0.4,0.4-1.8-1.3-1.8c-1,0-1.8,0.6-2,1.4c-0.2,1,0.5,1.2,1,1.3l2.3,0.6
		c1.6,0.5,3.6,1,3,3.7c-0.6,2.9-3.4,4.2-6.6,4.2c-1.3,0-3.5-0.2-4.4-1.5c-0.7-1-0.5-2.3-0.4-2.9h3.6V165.6z"/>
	<path class="st0" d="M233.6,156.7h3.6l-1.1,5.1h4.3l1.1-5.1h3.7l-2.8,13h-3.7l1.1-5.3h-4.4l-1.1,5.3h-3.6L233.6,156.7z"/>
	<path class="st0" d="M247.5,156.7h3.7l-2.8,13h-3.7L247.5,156.7z"/>
	<path class="st0" d="M253.7,156.7h6c1,0,2.3,0,3.2,0.7c1,0.7,1.4,1.8,1.1,3.5c-0.5,2.3-2.2,3.3-2.7,3.5c-1.1,0.6-2.7,0.6-3.4,0.6
		h-2.3l-1,4.7H251L253.7,156.7z M256.1,162.5h1.6c0.9,0,2.3,0,2.7-1.7c0.3-1.6-0.9-1.7-2-1.7h-1.6L256.1,162.5z"/>
</g>
<g>
	<path class="st0" d="M105,209.2c3.6-2.3,6.7-4.3,8.1-5.8c0.3-0.4,0.7-0.9,0.8-1.6c0.3-1.2-0.7-1.4-1.2-1.4c-1.5,0-1.9,1.2-2,1.6
		h-3.9c0.1-0.4,0.4-1.5,1.6-2.7c1.5-1.4,3.9-1.6,5.1-1.6c2.1,0,3.5,0.5,4.2,1.7c0.4,0.7,0.4,1.4,0.3,2.2c-0.6,2.9-3.8,4.8-8.2,7.6
		h6.6l-0.6,2.8h-11.3L105,209.2z"/>
	<path class="st0" d="M121.9,199.6c1.5-1.5,3.4-1.8,4.6-1.8c2.6,0,3.6,1,4,1.8c0.7,1.1,1.1,2.7,0.5,5.4c-0.8,4-3.1,7.3-7.6,7.3
		c-1.6,0-3.1-0.5-3.9-1.7c-1.2-1.7-0.8-4.2-0.5-5.6C119.4,203.8,120.1,201.3,121.9,199.6z M124.1,209.7c0.6,0,1.3-0.3,1.7-0.8
		c0.8-1.1,1.3-3.4,1.4-3.7c0.1-0.7,0.4-2.3,0.4-3.3c0-0.5-0.2-1.4-1.4-1.4c-1.1,0-2.2,0.5-3.1,4.7
		C122.4,208.1,122.4,209.7,124.1,209.7z"/>
	<path class="st0" d="M137,201.8c-1.2,0.9-3,1.5-3.7,1.7l0.7-3.1c1.7-0.5,2.7-0.9,4.5-2.2h3.2l-3,13.9h-3.9L137,201.8z"/>
	<path class="st0" d="M146.9,208.5c-0.1,0.8,0.4,1.4,1.5,1.4c2.1,0,2.8-1.8,3.3-4.2c-0.8,0.8-1.9,1.4-3.5,1.4
		c-1.9,0-2.7-0.5-3.3-1.3s-0.8-1.9-0.6-3.2c0.6-2.8,3.3-4.8,6.8-4.8c3.7,0,4.4,2,4.6,3.2c0.3,1.3,0.2,2.8-0.1,4.2
		c-0.3,1.6-1.1,3.7-2.6,5.2c-1.6,1.6-3.5,2-5.2,2c-1.8,0-3.3-0.4-4.2-1.6c-0.6-0.8-0.4-1.7-0.4-2.3L146.9,208.5L146.9,208.5z
		 M152.3,202.6c0.2-0.9,0-2.2-1.7-2.2c-1.5,0-2.4,1-2.6,2.2c-0.2,1,0.1,2.2,1.7,2.2C151.1,204.7,152,203.8,152.3,202.6z"/>
</g>
</svg>
