<?xml version="1.0" encoding="utf-8"?>
<!-- Generator: Adobe Illustrator 23.0.2, SVG Export Plug-In . SVG Version: 6.00 Build 0)  -->
<svg version="1.1" id="Layer_1" xmlns="http://www.w3.org/2000/svg" xmlns:xlink="http://www.w3.org/1999/xlink" x="0px" y="0px"
	 viewBox="0 0 202.6 67.2" style="enable-background:new 0 0 202.6 67.2;" xml:space="preserve">
<style type="text/css">
	.st0{fill:#FFFFFF;}
</style>
<g>
	<path class="st0" d="M53.9,6.3c4.4-1.9,8.5-4.4,13-6.3c0.5,2.1-0.4,4.2-1.3,6c-4.2,1.4-8.3,2.9-12.5,4.3c-0.3-0.3-0.7-0.6-0.7-1.1
		c-0.1-0.8,0.3-1.4,0.7-2C53.3,6.8,53.5,6.5,53.9,6.3L53.9,6.3z"/>
	<path class="st0" d="M136.5,2.4c2.8-0.6,5.6-0.7,8.5-0.7c-0.5,2.9-1.1,5.7-1.6,8.6c0,0-0.1,0.1-0.1,0.1c-0.7,0-1.5,0-2.2,0.1
		c-1.6,0.2-2.9,1.5-3.2,3.1c-0.1,0.7-0.3,1.3-0.4,2c1.6,0,3.3,0,4.9,0c-0.6,2.9-1.1,5.9-1.6,8.8c-1.6,0-3.2,0-4.9,0
		c-0.6,3.1-1.1,6.1-1.7,9.2c-1.3,6.9-2.6,13.8-3.9,20.8c-3.9,0-7.7,0-11.6,0c0.3-1.6,0.6-3.1,0.9-4.7c0.9-0.9,1.8-1.9,2.6-2.9
		c2.2-2.7,3.8-5.9,4.8-9.2c1-3.3,1.2-6.9,0.5-10.3c-0.7-4.1-2.9-7.9-6.2-10.4c0.1-0.4,0.1-0.8,0.2-1.2c1.4,0,2.9,0,4.3,0
		c0.3-1.6,0.5-3.2,1-4.7c0.6-1.8,1.6-3.5,3-4.8C131.7,4.3,134,3.1,136.5,2.4L136.5,2.4z"/>
	<path class="st0" d="M152.8,1.8c1.1-0.2,2.2-0.2,3.3,0.3c1.7,0.7,3,2.5,3,4.4c0,2-0.9,3.9-2.3,5.3c-1.2,1.2-2.7,2.1-4.4,2.3
		c-1.1,0.1-2.3,0.1-3.4-0.5c-1.3-0.7-2.2-2-2.5-3.4c-0.2-0.8,0-1.6,0.1-2.4C147.4,4.8,149.9,2.4,152.8,1.8L152.8,1.8z"/>
	<path class="st0" d="M104.2,3.5c0.5-0.1,1.1-0.1,1.6-0.1c0.6-0.1,1.3,0,1.9-0.1c1,0,2.1,0,3.1,0.1c1.3,0,2.6,0.1,3.9,0.4
		c0.8,0.3,1.6,0.7,1.9,1.5c0.2,0.9-0.2,1.8-0.7,2.5c-1,1.4-2.2,2.5-3.5,3.5c-1.3-0.1-2.6-0.3-3.9-0.3c0,0,0-0.1,0-0.2
		c0.9-0.7,1.7-1.5,2.5-2.3c0.6-0.6,1.2-1.1,1.5-1.9c0-0.2-0.2-0.4-0.4-0.5c-2.4-0.8-4.7-1.6-7.1-2.3C104.7,3.8,104.4,3.7,104.2,3.5
		L104.2,3.5z"/>
	<path class="st0" d="M76.3,12.7c2.8-0.3,5.6-0.7,8.4-0.9c1.1-0.1,2.2-0.1,3.2-0.1c-2.6,14.2-5.2,28.4-7.8,42.6c-3.9,0-7.7,0-11.6,0
		c2.2-12,4.4-24,6.6-36c0.4-1.8,0.6-3.7,1-5.5C76.2,12.8,76.3,12.7,76.3,12.7L76.3,12.7z"/>
	<path class="st0" d="M0,15.6c4,0,8,0,12,0c0.3,1.4,0.4,2.9,0.6,4.4c0.8,6.6,1.6,13.2,2.4,19.8c0.2-0.1,0.3-0.3,0.4-0.5
		c3.9-7.9,7.8-15.8,11.6-23.7c4,0,8,0,12,0c-0.2,0.5-0.6,1-0.8,1.5c-6.8,12.4-13.5,24.8-20.3,37.2c-3.7,0-7.4,0-11.1,0
		C4.9,44.1,3.1,33.8,1.4,23.6C0.9,20.9,0.4,18.3,0,15.6L0,15.6z"/>
	<path class="st0" d="M145.1,15.6c3.9,0,7.7,0,11.6,0c-2.3,12.2-4.5,24.5-6.8,36.7c-0.1,0.7-0.3,1.3-0.4,2c-3.9,0-7.7,0-11.6,0
		c1.8-10.1,3.7-20.1,5.6-30.2C144,21.3,144.6,18.5,145.1,15.6L145.1,15.6z"/>
	<path class="st0" d="M158.6,15.6c4.6,0,9.3,0,13.9,0c1.5,3.4,2.9,6.8,4.4,10.2c2.7-3.4,5.4-6.8,8.1-10.2c4.6,0,9.2,0,13.8,0
		c-5.5,6-10.9,12-16.4,18c3.7,6.9,7.4,13.8,11.2,20.7c-4.7,0-9.5,0-14.2,0c-1.8-4-3.7-7.9-5.4-11.9c0,0-0.1,0-0.2,0
		c-3.3,3.9-6.6,7.9-9.9,11.8c-0.1,0.2-0.3,0.1-0.5,0.1c-4.5,0-9,0-13.5,0c6-6.7,12-13.4,18-20.1c0.2-0.3,0.7-0.5,0.4-0.9
		C164.9,27.4,161.7,21.5,158.6,15.6L158.6,15.6z"/>
	<path class="st0" d="M71.4,29.4c-0.4-3.8-1.8-7.5-4.5-10.3c-2.3-2.4-5.5-3.9-8.8-4.5c-3.4-0.6-7-0.3-10.3,0.8
		c-6.3,2.1-11.8,6.8-15,12.7c-1.5,2.8-2.5,5.8-2.8,8.9c-0.2,2.4-0.1,4.8,0.7,7.1c0.9,2.9,2.6,5.6,4.9,7.6c2,1.7,4.4,2.9,6.9,3.5
		c5,1.2,10.4,0.3,14.9-2.2c4.5-2.5,8.4-6.2,10.9-10.7c-4,0-7.9,0-11.9,0c-1.1,1.1-2.3,2.1-3.7,2.8c-1.4,0.7-2.9,0.8-4.4,0.8
		c-2.2,0-4.5-0.9-5.9-2.7c-1-1.3-1.5-3-1.4-4.6c9.7,0,19.4,0,29,0c0.3-0.9,0.6-1.8,0.8-2.7C71.4,33.7,71.6,31.5,71.4,29.4z
		 M42.8,30.7c0.1-0.5,0.4-0.9,0.6-1.3c1.8-3.3,5.5-5.4,9.2-5.4c2-0.1,4.2,0.5,5.7,1.9c1.3,1.2,1.9,3,2,4.7
		C54.5,30.7,48.7,30.7,42.8,30.7z"/>
	<path class="st0" d="M124.6,22.5c-2-3.8-5.7-6.5-9.8-7.5c-3-0.7-6.2-0.8-9.3-0.4c0-0.9,0-1.8,0-2.6c-0.1-1.1-0.2-2.3-0.6-3.4
		c-0.2-0.4-0.4-0.8-0.9-1c-2.1-0.9-4.5-1.1-6.8-1.3c-1.7-0.1-3.5-0.2-5.2-0.1c-1.1,0.1-2.1,0-3.2,0.2c-0.6,0.1-1.2,0-1.8,0.1
		c-6.5,0.5-13,1.6-19.4,3.1c-3,0.7-6.1,1.6-9,2.6c-0.3,0.1-0.5,0.2-0.8,0.3c0.2,0.2,0.4,0.3,0.7,0.4c1,0.4,2,0.7,3,0.9
		c4-1.6,8.3-2.4,12.6-3.1C80.1,10,85.9,9.6,91.7,10c2.5,0.2,5,0.6,7.4,1.4c1,1.2,1.6,2.7,1.9,4.3l-0.1,0.1
		c-4.2,1.6-8.1,4.3-10.9,7.8c-3.2,4-5.4,9-5.7,14.1c-0.1,2.4,0.2,4.9,1,7.2c0.8,2.4,2.2,4.6,4.1,6.3c1.9,1.8,4.3,3.1,6.8,3.7
		c3.1,0.7,6.3,0.8,9.4,0.3c4.1-0.6,8-2.4,11.2-4.9c3.1-2.4,5.6-5.5,7.3-9c1.3-2.7,2.3-5.5,2.5-8.5C126.9,29.3,126.3,25.7,124.6,22.5
		z M114.7,35.4c-0.6,2.4-1.8,4.5-3.6,6.2c-1.8,1.7-4.1,2.9-6.6,3.1c-0.5,0-1,0-1.5,0c-1.7-0.1-3.3-0.8-4.6-1.9
		c-2.1-1.9-2.7-4.9-2.2-7.6c0.7-4.5,4.2-8.4,8.6-9.6c1.9-0.5,3.9-0.5,5.7,0.3c1.7,0.7,3.2,2.1,3.9,3.8
		C115.1,31.5,115.1,33.5,114.7,35.4z"/>
	<path class="st0" d="M113.9,58.4c0.4,0,0.8,0,1,0.3c0.4,0.5,0.1,1.4-0.5,1.5c-0.6,0.1-1.2-0.4-1.1-1
		C113.3,58.9,113.6,58.6,113.9,58.4L113.9,58.4z"/>
	<path class="st0" d="M147,58.5c0.2-0.2,0.6-0.2,0.8-0.1c0.7,0.3,0.7,1.5-0.1,1.7c-0.6,0.2-1.3-0.3-1.2-0.9
		C146.5,58.9,146.8,58.7,147,58.5L147,58.5z"/>
	<path class="st0" d="M79.8,59c1.1-0.5,2.5-0.5,3.4,0.4c0.1,0.1,0.3,0.2,0.2,0.4c-0.3,0.3-0.6,0.6-0.8,0.8c-0.3,0-0.4-0.3-0.6-0.4
		c-0.4-0.3-1.1-0.3-1.5,0c-0.2,0.2-0.3,0.4-0.4,0.7c0.2,0.7,0.9,1,1.5,1.3c0.9,0.4,1.8,1,2,1.9c0.1,0.7,0.1,1.4-0.3,2
		C83,66.6,82.5,66.9,82,67c-0.9,0.2-1.8,0.2-2.6-0.2c-0.4-0.2-0.8-0.5-0.9-1c0.3-0.3,0.6-0.7,0.9-1c0.4,0.8,1.5,1.3,2.3,0.7
		c0.5-0.3,0.6-1.2,0.1-1.5c-0.8-0.6-1.8-0.9-2.5-1.6c-0.6-0.5-0.8-1.2-0.7-1.9C78.6,59.9,79.2,59.3,79.8,59L79.8,59z"/>
	<path class="st0" d="M106.8,58.9c1.9,0,3.8,0,5.6,0c0,0.5,0,1,0,1.4c-0.6,0-1.3,0-1.9,0c0,0-0.1,0.1-0.1,0.1c0,2.2,0,4.3,0,6.5
		c-0.6,0-1.1,0-1.7,0c0-2.2,0-4.4,0-6.6c-0.6,0-1.3,0-1.9,0C106.8,59.8,106.8,59.4,106.8,58.9L106.8,58.9z"/>
	<path class="st0" d="M166,66.9c0.4-2.7,0.8-5.4,1.2-8.1c0.6,0,1.2,0,1.8,0c0.6,1.9,1.3,3.8,1.8,5.8c0-1,0.5-1.8,0.7-2.8
		c0.3-1,0.7-2,1-3c0.6,0,1.2,0,1.8,0c0.4,2.7,0.8,5.4,1.2,8.1c-0.5,0-1.1,0-1.6,0c-0.3-1.9-0.5-3.7-0.7-5.6l-0.2-0.1
		c-0.6,1.9-1.2,3.8-1.8,5.7c-0.3,0-0.6,0-1,0c-0.5-1.5-1-3.1-1.5-4.6c-0.2-0.6-0.3-1.2-0.4-1.9c-0.1,2.2-0.5,4.3-0.7,6.5
		C167.1,66.9,166.5,66.9,166,66.9L166,66.9z"/>
	<path class="st0" d="M143.6,63.3c0.4-0.1,0.8-0.2,1-0.5c0.8-0.7,0.9-2,0.4-2.9c-0.5-0.7-1.4-0.9-2.2-1c-1,0-1.9,0-2.9,0
		c0,2.7,0,5.4,0,8.1c0.6,0,1.1,0,1.7,0c0-1.3,0-2.5,0-3.8c0.7,1.3,1.4,2.5,2.1,3.8c0.6,0,1.3,0,1.9,0
		C145.1,65.7,144.3,64.5,143.6,63.3z M143,62.2c-0.4,0.1-0.9,0.1-1.3,0.1c0-0.7,0-1.4,0-2.1c0.5,0,1,0,1.4,0.1
		C143.9,60.6,143.9,62,143,62.2z"/>
	<path class="st0" d="M119.5,61.4c0.5,0,1,0,1.4,0.2c0.4,0.2,0.5,0.5,0.7,0.9c0.5-0.6,1.2-1.2,2-1.1c0.8,0,1.6,0.7,1.6,1.5
		c0,1.4,0,2.7,0,4.1c-0.5,0-1,0-1.5,0c0-1,0-2.1,0-3.1c0-0.4-0.1-0.8-0.3-1.1c-0.4-0.2-0.8-0.2-1.1,0c-0.5,0.3-0.5,0.9-0.6,1.4
		c0,0.9,0,1.8,0,2.7c-0.5,0-1,0-1.6,0c0-1,0-2.1,0-3.1c0-0.3-0.1-0.5-0.1-0.8c0-0.1-0.1-0.2-0.2-0.3c-0.6-0.4-1.4,0-1.5,0.6
		c-0.3,1.2-0.1,2.3-0.2,3.5c-0.5,0-1,0-1.5,0c0-1.8,0-3.6,0-5.4c0.5,0,1,0,1.5,0c0,0.3,0,0.5,0,0.8
		C118.5,61.9,118.9,61.5,119.5,61.4L119.5,61.4z"/>
	<path class="st0" d="M91,61.5c0.6,0,1.1,0,1.7,0c0.5,1.3,0.9,2.5,1.2,3.8l-0.2,0c0.1,0,0.2,0.1,0.2,0c0.1-0.8,0.5-1.6,0.7-2.4
		c0.2-0.5,0.3-1,0.5-1.5c0.6,0,1.1,0,1.7,0c-0.1,0.4-0.3,0.8-0.4,1.2c-0.6,1.4-1.2,2.8-1.7,4.2c-0.5,0-1.1,0-1.6,0
		c-0.6-1.4-1.1-2.7-1.7-4.1C91.3,62.4,91.1,62,91,61.5L91,61.5z"/>
	<path class="st0" d="M113.5,61.5c0.5,0,1,0,1.5,0c0,1.8,0,3.6,0,5.4c-0.5,0-1,0-1.5,0C113.5,65.1,113.4,63.3,113.5,61.5L113.5,61.5
		z"/>
	<path class="st0" d="M185.8,61.5c0.4-0.2,0.8-0.1,1.3-0.1c0,0.6-0.2,1.1-0.2,1.7c-0.6-0.1-1.3-0.2-1.7,0.2
		c-0.4,0.4-0.4,0.9-0.4,1.4c0,0.7,0,1.5,0,2.2c-0.5,0-1,0-1.5,0c0-1.8,0-3.6,0-5.4c0.5-0.2,1,0,1.5-0.1c0,0.5,0,0.9,0,1.4
		C184.9,62.3,185.2,61.7,185.8,61.5L185.8,61.5z"/>
	<path class="st0" d="M146.7,66.9c0-1.8,0-3.6,0-5.4c0.5,0,0.9,0,1.4,0c0.2,0.3,0.1,0.6,0.1,0.9c0,1.5,0,3,0,4.5
		C147.7,66.9,147.2,66.9,146.7,66.9L146.7,66.9z"/>
	<path class="st0" d="M90.3,62.4c0-0.3,0-0.5,0.1-0.8c-0.1,0-0.2-0.1-0.3-0.1c-0.4,0-0.8,0-1.3,0c0,0.3,0,0.6,0,0.9
		c-0.2-0.3-0.4-0.6-0.7-0.8c-0.7-0.4-1.5-0.3-2.2,0c-0.7,0.4-1.2,1.2-1.3,2c-0.1,1,0,2.1,0.7,2.9c0.9,1,2.7,0.9,3.4-0.3
		c0,0.2,0,0.5,0,0.7c0.5,0,1,0,1.5,0c0.1-0.4,0.1-0.7,0-1.1C90.4,64.7,90.4,63.6,90.3,62.4z M88.8,65.1c-0.4,0.9-1.8,1-2.3,0.2
		c-0.5-0.8-0.3-2.3,0.7-2.6c0.4-0.1,0.8,0,1.2,0.2C89,63.4,89,64.4,88.8,65.1z"/>
	<path class="st0" d="M102.2,62.3c-0.4-0.5-1-0.8-1.6-0.9c-0.7-0.1-1.5,0-2.1,0.4c-1.7,1-1.7,3.9-0.1,5c1.3,0.8,3.4,0.5,4.1-1
		c-0.4-0.2-0.8-0.4-1.2-0.6c-0.5,0.9-2,0.9-2.5,0c0-0.2-0.1-0.3-0.1-0.5c1.3,0,2.7,0,4,0C102.8,63.8,102.7,63,102.2,62.3z
		 M98.8,63.6c0.1-0.7,0.8-1.1,1.5-1c0.5,0.1,0.9,0.5,0.9,1C100.4,63.7,99.6,63.7,98.8,63.6z"/>
	<path class="st0" d="M131.9,64.6c0.1-0.9-0.1-1.9-0.7-2.5c-0.6-0.7-1.6-0.8-2.5-0.7c-1.1,0.2-2.1,1.1-2.2,2.2
		c-0.3,1.1,0.1,2.5,1.1,3.1c1.3,0.9,3.5,0.5,4.2-1c-0.4-0.2-0.8-0.4-1.2-0.6c-0.3,0.4-0.9,0.7-1.4,0.7c-0.6,0-1.1-0.6-1.2-1.1
		C129.3,64.6,130.6,64.6,131.9,64.6z M128,63.6c0.1-0.7,0.8-1.1,1.5-1c0.5,0.1,0.9,0.5,0.9,1C129.6,63.7,128.8,63.7,128,63.6z"/>
	<path class="st0" d="M153.7,58.4c0,1.3,0,2.7,0,4c-0.3-0.4-0.6-0.8-1.1-0.9c-0.6-0.2-1.3-0.2-1.9,0.1c-0.7,0.4-1.1,1.2-1.2,2
		c-0.1,0.9-0.1,1.9,0.5,2.7c0.8,1.2,2.8,1.2,3.6,0c0,0.2,0,0.5,0,0.7c0.5,0,1,0,1.5,0c0-2.8,0-5.7,0-8.5
		C154.7,58.4,154.2,58.4,153.7,58.4z M153.4,65.4c-0.6,0.6-1.8,0.4-2.2-0.4c-0.3-0.8-0.1-2.2,0.9-2.4c0.7-0.2,1.4,0.3,1.5,0.9
		C153.8,64.2,153.8,64.9,153.4,65.4z"/>
	<path class="st0" d="M161.9,64.6c0.1-1-0.1-2-0.9-2.7c-0.9-0.8-2.4-0.8-3.4-0.2c-1.4,0.9-1.6,2.9-0.8,4.2c1.1,1.7,4,1.6,4.9-0.2
		c-0.4-0.2-0.8-0.4-1.2-0.6c-0.4,0.7-1.5,0.9-2.1,0.4c-0.3-0.2-0.4-0.6-0.4-0.9C159.2,64.6,160.6,64.6,161.9,64.6z M157.9,63.6
		c0.1-0.8,1.1-1.3,1.8-0.9c0.4,0.1,0.5,0.5,0.7,0.9C159.6,63.7,158.7,63.6,157.9,63.6z"/>
	<path class="st0" d="M193,64.6c0.1-1-0.2-2.2-1.1-2.8c-1-0.7-2.5-0.6-3.4,0.1c-1.2,0.9-1.4,2.8-0.6,4c1.1,1.7,4,1.6,4.9-0.2
		c-0.4-0.2-0.8-0.4-1.2-0.6c-0.3,0.4-0.8,0.7-1.4,0.7c-0.6,0-1.1-0.5-1.2-1.2C190.3,64.6,191.6,64.6,193,64.6z M190,62.6
		c0.7-0.1,1.4,0.3,1.5,1c-0.8,0-1.6,0-2.5,0C189.1,63.1,189.5,62.7,190,62.6z"/>
	<path class="st0" d="M181.7,62.9c-0.6-1.3-2.2-1.8-3.5-1.5c-1.1,0.2-2,1.2-2.2,2.4c-0.1,0.8,0.1,1.8,0.7,2.4
		c1.1,1.3,3.3,1.3,4.5,0.1C182.1,65.4,182.3,64,181.7,62.9z M180,65.3c-0.6,0.6-1.9,0.4-2.2-0.4c-0.3-0.7-0.2-1.6,0.5-2
		c0.7-0.3,1.7-0.2,2,0.6C180.5,64.2,180.5,64.9,180,65.3z"/>
	<path class="st0" d="M133.2,65.8c0.2-0.5,0.7-0.8,1.2-0.6c0.3,0.1,0.5,0.4,0.6,0.7c0,0.1,0,0.3,0,0.4c-0.2,0.4-0.5,0.7-0.9,0.7
		C133.4,67.1,132.9,66.4,133.2,65.8L133.2,65.8z"/>
	<g>
		<g>
			<path class="st0" d="M200.3,11.4c0.9,0,1.7,0.8,1.7,1.7c0,0.9-0.8,1.7-1.7,1.7c-0.9,0-1.7-0.8-1.7-1.7
				C198.6,12.2,199.4,11.4,200.3,11.4 M200.3,10.9c-1.3,0-2.3,1-2.3,2.3c0,1.3,1,2.3,2.3,2.3c1.3,0,2.3-1,2.3-2.3
				C202.6,11.9,201.6,10.9,200.3,10.9L200.3,10.9z"/>
		</g>
		<g>
			<path class="st0" d="M199.4,14.3V12h1.1c0.2,0,0.4,0,0.5,0.1c0.1,0,0.2,0.1,0.3,0.2c0.1,0.1,0.1,0.2,0.1,0.4c0,0.1,0,0.2-0.1,0.3
				c-0.1,0.1-0.1,0.2-0.2,0.2c-0.1,0-0.1,0.1-0.2,0.1c0.1,0,0.1,0.1,0.2,0.1c0,0,0.1,0.1,0.1,0.1c0,0.1,0.1,0.1,0.1,0.1l0.3,0.7
				h-0.7l-0.3-0.7c0-0.1-0.1-0.1-0.1-0.2c0,0-0.1-0.1-0.2-0.1H200v0.9H199.4z M200,12.9h0.3c0,0,0.1,0,0.2,0c0,0,0.1,0,0.1-0.1
				c0,0,0-0.1,0-0.1c0-0.1,0-0.1-0.1-0.2c0,0-0.1-0.1-0.2-0.1H200V12.9z"/>
		</g>
	</g>
</g>
<g>
</g>
<g>
</g>
<g>
</g>
<g>
</g>
<g>
</g>
<g>
</g>
<g>
</g>
<g>
</g>
<g>
</g>
<g>
</g>
<g>
</g>
<g>
</g>
<g>
</g>
<g>
</g>
<g>
</g>
</svg>
