<?xml version="1.0" encoding="utf-8"?>
<!-- Generator: Adobe Illustrator 23.0.3, SVG Export Plug-In . SVG Version: 6.00 Build 0)  -->
<svg version="1.1" id="Layer_1" xmlns="http://www.w3.org/2000/svg" xmlns:xlink="http://www.w3.org/1999/xlink" x="0px" y="0px"
	 viewBox="0 0 267.1 212.5" style="enable-background:new 0 0 267.1 212.5;" xml:space="preserve">
<style type="text/css">
	.st0{fill:#FFFFFF;}
</style>
<g>
	<g>
		<path class="st0" d="M265.1,211.4c0,0.6-0.7,1.1-1.6,1.1h-20.9c-0.9,0-1.6-0.5-1.6-1.1v-1.2c0-0.6,0.7-1.1,1.6-1.1h16.1
			c0.9,0,1.5-0.5,1.5-1.1v-1.6c0-0.6-0.7-1.1-1.5-1.1h-16.1c-0.8,0-1.6-0.5-1.6-1.1v-8.5c0-0.6,0.7-1.1,1.6-1.1h20.9
			c0.9,0,1.6,0.5,1.6,1.1v1.2c0,0.6-0.7,1.1-1.6,1.1h-16.1c-0.8,0-1.5,0.5-1.5,1.1v1.6c0,0.6,0.7,1.1,1.5,1.1h16.1
			c0.9,0,1.6,0.5,1.6,1.1V211.4z M228.2,197c0,0.6-0.7,1.1-1.6,1.1h-6.5c-0.8,0-1.5,0.5-1.5,1.1v12.3c0,0.6-0.7,1.1-1.6,1.1h-1.7
			c-0.8,0-1.5-0.5-1.5-1.1v-12.3c0-0.6-0.7-1.1-1.6-1.1h-6.5c-0.8,0-1.5-0.5-1.5-1.1v-1.2c0-0.6,0.7-1.1,1.5-1.1h20.9
			c0.9,0,1.6,0.5,1.6,1.1V197z M191.4,211.4c0,0.6-0.7,1.1-1.6,1.1h-1.7c-0.8,0-1.6-0.5-1.6-1.1v-15.7c0-0.6,0.7-1.1,1.6-1.1h1.7
			c0.9,0,1.6,0.5,1.6,1.1V211.4z M173.7,211.4c0,0.6-0.7,1.1-1.6,1.1h-20.9c-0.8,0-1.6-0.5-1.6-1.1v-15.7c0-0.6,0.7-1.1,1.6-1.1h1.7
			c0.8,0,1.6,0.5,1.6,1.1V208c0,0.6,0.7,1.1,1.5,1.1h11.3c0.9,0,1.6-0.5,1.6-1.1v-12.2c0-0.6,0.7-1.1,1.6-1.1h1.7
			c0.9,0,1.6,0.5,1.6,1.1V211.4z M136.9,211.4c0,0.6-0.7,1.1-1.6,1.1h-20.9c-0.9,0-1.6-0.5-1.6-1.1v-1.2c0-0.6,0.7-1.1,1.6-1.1h16.1
			c0.9,0,1.6-0.5,1.6-1.1v-1.6c0-0.6-0.7-1.1-1.6-1.1h-16.1c-0.8,0-1.6-0.5-1.6-1.1v-8.5c0-0.6,0.7-1.1,1.6-1.1h20.9
			c0.9,0,1.6,0.5,1.6,1.1v1.2c0,0.6-0.7,1.1-1.6,1.1h-16.1c-0.8,0-1.5,0.5-1.5,1.1v1.6c0,0.6,0.7,1.1,1.5,1.1h16.1
			c0.9,0,1.6,0.5,1.6,1.1V211.4z M100,197c0,0.6-0.7,1.1-1.6,1.1H92c-0.8,0-1.5,0.5-1.5,1.1v12.3c0,0.6-0.7,1.1-1.6,1.1h-1.7
			c-0.8,0-1.5-0.5-1.5-1.1v-12.3c0-0.6-0.7-1.1-1.5-1.1h-6.5c-0.8,0-1.6-0.5-1.6-1.1v-1.2c0-0.6,0.7-1.1,1.6-1.1h20.9
			c0.9,0,1.6,0.5,1.6,1.1V197z M63.2,211.4c0,0.6-0.7,1.1-1.6,1.1H40.7c-0.8,0-1.6-0.5-1.6-1.1v-15.7c0-0.6,0.7-1.1,1.6-1.1h20.9
			c0.9,0,1.6,0.5,1.6,1.1v1.2c0,0.6-0.7,1.1-1.6,1.1H45.5c-0.8,0-1.5,0.5-1.5,1.1v1.6c0,0.6,0.7,1.1,1.5,1.1h16.1
			c0.9,0,1.6,0.5,1.6,1.1v1.3c0,0.6-0.7,1.1-1.6,1.1H45.5c-0.8,0-1.5,0.5-1.5,1.1v1.6c0,0.6,0.7,1.1,1.5,1.1h16.1
			c0.9,0,1.6,0.5,1.6,1.1V211.4z M26.3,211.4c0,0.6-0.7,1.1-1.6,1.1H3.9c-0.8,0-1.6-0.5-1.6-1.1v-15.7c0-0.6,0.7-1.1,1.6-1.1h1.7
			c0.9,0,1.6,0.5,1.6,1.1V208c0,0.6,0.7,1.1,1.6,1.1h1.7c0.8,0,1.5-0.5,1.5-1.1v-12.2c0-0.6,0.7-1.1,1.6-1.1h1.7
			c0.9,0,1.6,0.5,1.6,1.1V208c0,0.6,0.7,1.1,1.6,1.1H20c0.8,0,1.5-0.5,1.5-1.1v-12.2c0-0.6,0.7-1.1,1.6-1.1h1.7
			c0.9,0,1.6,0.5,1.6,1.1V211.4z"/>
		<polygon class="st0" points="71.3,183.8 63.7,183.8 63.7,161.5 48.4,161.5 48.4,155.8 86.5,155.8 86.5,161.5 71.3,161.5 		"/>
		<polygon class="st0" points="94.5,155.8 132.6,155.8 132.6,161.5 102.2,161.5 102.2,167 132.6,167 132.6,172.6 102.2,172.6 
			102.2,178.2 132.6,178.2 132.6,183.8 94.5,183.8 		"/>
		<polygon class="st0" points="150.9,183.8 143.3,183.8 143.3,155.8 176.9,155.8 176.9,161.5 150.9,161.5 		"/>
		<polygon class="st0" points="193.1,183.8 185.4,183.8 185.4,155.8 221.3,155.8 221.3,161.5 193.1,161.5 		"/>
		<path class="st0" d="M259.5,172.6h-22.8l0,11.2H229v-28h38.1v28h-7.6V172.6z M236.7,167h22.8v-5.6h-22.8V167z"/>
		<polygon class="st0" points="33.8,183.8 22.6,174.3 11.6,183.8 0,183.8 16.9,169.4 0.9,155.8 12.2,155.8 22.6,164.6 33,155.8 
			44.5,155.8 28.3,169.5 45.2,183.8 		"/>
	</g>
	<g>
		<path class="st0" d="M199.9,54.3C164.7,21.7,121.5,0,121.5,0h138.8L199.9,54.3z"/>
		<path class="st0" d="M87.6,0c89.2,31,179.3,143.2,179.3,143.2H149.4C119.6,84.9,70.2,31.3,7.5,0H87.6z"/>
		<path class="st0" d="M1.6,143.2l79.3-72.1c31.4,31.5,50.5,72.1,50.5,72.1H1.6z"/>
	</g>
</g>
</svg>
